<?xml version="1.0" encoding="UTF-8" standalone="no"?>
<!-- Created with Inkscape (http://www.inkscape.org/) -->

<svg
   xmlns:dc="http://purl.org/dc/elements/1.1/"
   xmlns:cc="http://creativecommons.org/ns#"
   xmlns:rdf="http://www.w3.org/1999/02/22-rdf-syntax-ns#"
   xmlns:svg="http://www.w3.org/2000/svg"
   xmlns="http://www.w3.org/2000/svg"
   xmlns:sodipodi="http://sodipodi.sourceforge.net/DTD/sodipodi-0.dtd"
   xmlns:inkscape="http://www.inkscape.org/namespaces/inkscape"
   id="svg2985"
   sodipodi:docname="naturecartoonscene.svg"
   xml:space="preserve"
   inkscape:export-filename="/Users/GB/Desktop/AHIS Design/School Rules/rules-poster.png"
   viewBox="0 0 1059.3 1412.0805"
   inkscape:export-xdpi="300"
   version="1.1"
   inkscape:export-ydpi="300"
   inkscape:version="0.92.1 r15371"
   width="1129.92"
   height="1506.2192"><defs
     id="defs10388" /><sodipodi:namedview
     id="namedview2987"
     bordercolor="#666666"
     inkscape:pageshadow="2"
     guidetolerance="10"
     pagecolor="#ffffff"
     gridtolerance="10"
     inkscape:window-maximized="1"
     inkscape:zoom="0.11367874"
     objecttolerance="10"
     borderopacity="1"
     inkscape:current-layer="g2995"
     inkscape:cx="-119.21297"
     inkscape:cy="811.11287"
     inkscape:window-y="-8"
     inkscape:window-x="-8"
     inkscape:window-width="1366"
     showgrid="false"
     inkscape:pageopacity="0"
     inkscape:window-height="706"
     inkscape:document-units="mm"
     fit-margin-top="0"
     fit-margin-left="0"
     fit-margin-right="0"
     fit-margin-bottom="0" /><g
     id="g2993"
     inkscape:label="ink_ext_XXXXXX"
     inkscape:groupmode="layer"
     transform="matrix(1.25,0,0,-1.25,0,1408.8538)"><g
       id="g2995"
       transform="scale(0.1)"><rect
         id="rect3153"
         style="fill:#bdeaf6;stroke-width:2.01561379;fill-opacity:1"
         transform="scale(1,-1)"
         height="11296.645"
         width="8474.4004"
         y="-11270.83"
         x="0" /><g
         id="g5591"
         transform="matrix(7.4999998,0,0,-7.4999998,2641.8301,14093.132)">
	<path
   style="fill:#a152a1;stroke:#a152a1;stroke-width:0.5"
   inkscape:connector-curvature="0"
   d="m 520.782,1163.907 c 2.74,-1.41 5.3,1.26 7.03,3.12 6,7.1 9.88,15.66 13.89,23.97 6.87,15.21 12.91,30.8 18.2,46.62 -7.38,0.95 -14.91,1.41 -22.01,3.82 -4.47,1.46 -8.84,3.21 -13.15,5.1 -2.72,-13.41 -4.72,-26.98 -6.32,-40.57 -1.12,-11.02 -2.25,-22.16 -1.15,-33.23 0.54,-3.08 0.84,-6.77 3.51,-8.83 z"
   id="path5531" />
	<path
   style="fill:#a152a1;stroke:#a152a1;stroke-width:0.5"
   inkscape:connector-curvature="0"
   d="m 600.122,1168.477 c 1.8,-2.03 3.8,-4.52 6.71,-4.72 3.42,0.6 3.91,4.67 4.57,7.46 1.46,10.93 0.23,22.01 -0.87,32.93 -1.8,14.42 -3.88,28.85 -6.94,43.07 -8.88,-4.06 -18.19,-7.75 -27.99,-8.63 -2.34,-0.31 -4.66,-0.71 -7,-0.9 5.49,-16.2 11.79,-32.14 19.02,-47.64 3.64,-7.47 7.31,-15.04 12.5,-21.57 z"
   id="path5533" />
	<path
   style="fill:#a052a1;stroke:#a052a1;stroke-width:0.5"
   inkscape:connector-curvature="0"
   d="m 448.082,1205.587 c 4,-0.9 7.9,1.17 11.45,2.79 12.36,6.39 23.42,14.92 34.4,23.38 7.78,6.24 15.55,12.49 22.97,19.15 -10.26,6.5 -19.18,15.04 -26.26,24.91 -10.89,-12.41 -21.12,-25.41 -30.63,-38.91 -5.06,-7.52 -10.35,-15.1 -13.28,-23.76 -0.77,-2.44 -1.62,-6.31 1.35,-7.56 z"
   id="path5535" />
	<path
   style="fill:#a152a1;stroke:#a152a1;stroke-width:0.5"
   inkscape:connector-curvature="0"
   d="m 675.502,1206.577 c 2.3,-0.56 5.98,-1.18 6.95,1.71 0.81,4.85 -1.97,9.32 -3.99,13.53 -8.51,15.24 -19.53,28.88 -30.49,42.4 -3.54,4.49 -7.63,8.55 -10.85,13.29 -6.69,-10.34 -15.81,-19.12 -26.06,-25.9 13.32,-11.61 27.18,-22.62 41.7,-32.69 7.19,-4.76 14.46,-9.71 22.74,-12.34 z"
   id="path5537" />
	<path
   style="fill:#06bab9;stroke:#06bab9;stroke-width:0.5"
   inkscape:connector-curvature="0"
   d="m 559.902,1237.617 c 2.89,-0.09 5.8,-0.05 8.7,0.07 2.34,0.19 4.66,0.59 7,0.9 9.8,0.88 19.11,4.57 27.99,8.63 2.53,1.38 5.05,2.8 7.47,4.39 10.25,6.78 19.37,15.56 26.06,25.9 1.57,2.39 3.09,4.82 4.46,7.35 1.81,3.37 3.39,6.88 4.64,10.51 0.19,0.14 0.58,0.41 0.78,0.55 0.31,1.83 0.65,3.68 1,5.53 0.26,0.1 0.78,0.29 1.04,0.38 0.46,7.47 3.03,14.69 2.46,22.25 0.45,7.86 -0.81,15.6 -2.32,23.28 -0.18,0.13 -0.53,0.37 -0.7,0.49 -0.72,5.68 -3.24,10.87 -4.96,16.27 -0.25,0.2 -0.74,0.59 -0.98,0.79 -1.24,2.66 -2.7,5.21 -4.35,7.64 -6.48,10.45 -15.21,19.37 -25.33,26.32 -2.86,2.26 -6.33,3.59 -9.16,5.9 -9.66,3.87 -19.45,8.06 -29.97,8.67 -11.66,0.61 -23.7,0.87 -34.9,-2.92 -5.25,-1.42 -10.23,-3.63 -15.25,-5.69 -3.15,-2.14 -6.6,-3.77 -9.75,-5.89 -9.76,-7 -18.41,-15.67 -24.88,-25.82 -1.78,-2.89 -3.66,-5.78 -4.76,-9.01 -4.38,-12.56 -8.55,-25.59 -8.04,-39.05 -0.4,-7.82 1.64,-15.44 3.36,-22.98 1.47,-6.42 4.9,-12.13 6.69,-18.43 1.12,-2.79 2.9,-5.27 4.44,-7.83 7.08,-9.87 16,-18.41 26.26,-24.91 2.6,-1.48 5.16,-3.05 7.84,-4.37 4.31,-1.89 8.68,-3.64 13.15,-5.1 7.1,-2.41 14.63,-2.87 22.01,-3.82 m -13.39,21.84 c -0.67,1.79 -1.36,3.63 -1.34,5.6 -0.38,9.74 1.69,19.32 3.1,28.91 -1.15,0.49 -2.26,1.06 -3.3,1.75 l 0.84,-0.57 c -7.46,-6.03 -14.65,-12.54 -23.1,-17.17 -1.73,-1.03 -3.7,-1.41 -5.66,-1.55 -0.11,2.09 0.02,4.25 1.17,6.09 4.08,7.54 9.6,14.17 15.08,20.72 0.15,1.55 0.46,3.22 -0.39,4.66 -10.85,-1.45 -21.93,-4.62 -32.87,-2.28 -0.64,3.26 2.68,4.76 4.97,6.2 7.4,4.1 15.32,7.22 23.31,10 -0.21,1.39 -0.27,2.8 -0.24,4.24 -8,2.8 -15.98,5.81 -23.4,9.93 -2.23,1.34 -5.15,2.83 -4.83,5.91 10.35,2.49 20.93,-0.64 31.28,-1.65 0.77,1.73 1.26,3.57 1.25,5.51 -2.77,2.6 -4.92,5.76 -7.27,8.73 -3.5,5.04 -8.04,9.95 -8.88,16.27 1.86,0.02 3.87,0.34 5.57,-0.66 7.78,-4.08 14.52,-9.81 21.33,-15.28 1.78,1.11 3.62,2.16 5.5,3.11 l -1.17,-0.51 c -1.49,10.1 -3.9,20.5 -1.72,30.67 1.47,-0.32 3.14,-0.54 3.94,-2 5.28,-7.51 8.2,-16.35 11.57,-24.81 1.71,0.18 3.46,0.2 5.18,-0.01 2.9,7.82 5.79,15.71 10.01,22.94 1.05,1.89 2.7,3.31 4.43,4.6 0.36,-0.72 1.1,-2.14 1.46,-2.85 1.04,-9.67 -0.76,-19.29 -2.14,-28.83 l -1.28,0.56 c 1.28,-0.7 2.4,-1.66 3.59,-2.51 0.39,-0.19 1.15,-0.57 1.54,-0.76 5.25,4.57 10.71,8.91 16.48,12.82 2.84,1.7 5.68,3.95 9.09,4.27 2.47,0.11 1.51,-3.09 0.81,-4.37 -4.16,-8.64 -10.55,-15.94 -16.55,-23.32 1.06,-1.93 1.77,-4.03 2.76,-5.98 -0.14,0.57 -0.42,1.71 -0.57,2.29 8.44,1.8 17.05,3.01 25.68,3.2 2.23,-0.28 5.33,0.14 6.52,-2.26 -0.9,-1.97 -2.69,-3.25 -4.47,-4.32 -7.79,-4.61 -16.4,-7.52 -24.74,-10.91 0.13,-1.16 0.09,-2.29 -0.13,-3.4 8.75,-3.44 17.83,-6.33 25.85,-11.34 1.33,-1.13 3.71,-2.17 3.37,-4.25 -1.09,-1.24 -2.73,-1.49 -4.26,-1.53 -10,-0.45 -19.91,1.27 -29.7,3.07 0.13,0.44 0.41,1.3 0.54,1.73 -1.13,-1.51 -1.69,-3.31 -2.61,-4.91 l 0.66,0.85 c 4.23,-5.41 8.81,-10.55 12.74,-16.18 2.65,-3.87 5.71,-7.83 6.08,-12.68 -2.16,0.01 -4.45,-0.1 -6.32,1.16 -8.43,4.8 -15.95,11.03 -23.3,17.32 -0.71,-0.48 -1.43,-0.89 -2.17,-1.23 1.26,-11.32 5.27,-22.92 2.4,-34.26 -3.28,-0.48 -4.68,2.7 -6.09,5.04 -4.54,8.01 -7.65,16.71 -10.78,25.34 -0.65,-0.01 -1.95,-0.04 -2.6,-0.05 -2.78,-8.36 -5.95,-16.61 -9.97,-24.45 -1.48,-2.66 -3.09,-5.75 -6.25,-6.61 m -2.29,127.71 c 0.9,-5.05 0.5,-10.19 0.07,-15.25 -1.13,4.97 -1.5,10.29 -0.07,15.25 m 39.07,-15.21 c -0.41,4.71 -1.19,9.63 0.23,14.25 0.9,-4.7 0.92,-9.6 -0.23,-14.25 z"
   id="path5539" />
	<path
   style="fill:#feffff;stroke:#feffff;stroke-width:0.5"
   inkscape:connector-curvature="0"
   d="m 546.512,1259.457 c 3.16,0.86 4.77,3.95 6.25,6.61 4.02,7.84 7.19,16.09 9.97,24.45 -4.99,0.19 -9.93,1.35 -14.46,3.45 -1.41,-9.59 -3.48,-19.17 -3.1,-28.91 -0.02,-1.97 0.67,-3.81 1.34,-5.6 z"
   id="path5541" />
	<path
   style="fill:#fefeff;stroke:#fefeff;stroke-width:0.5"
   inkscape:connector-curvature="0"
   d="m 576.112,1265.227 c 1.41,-2.34 2.81,-5.52 6.09,-5.04 2.87,11.34 -1.14,22.94 -2.4,34.26 -4.54,-2.18 -9.46,-3.52 -14.47,-3.88 3.13,-8.63 6.24,-17.33 10.78,-25.34 z"
   id="path5543" />
	<path
   style="fill:#a052a1;stroke:#a052a1;stroke-width:0.5"
   inkscape:connector-curvature="0"
   d="m 412.062,1276.467 c 11.22,-1.39 22.52,0.07 33.7,1.18 13.03,1.66 26.08,3.52 38.92,6.32 -4.28,7.8 -6.78,16.45 -8.73,25.1 -0.76,3.07 -0.81,6.25 -0.74,9.41 -16.52,-5.57 -32.73,-12.13 -48.45,-19.66 -7.24,-3.75 -14.8,-7.35 -20.7,-13.09 -1.54,-1.55 -3.36,-4.17 -1.74,-6.26 1.94,-2.16 5.03,-2.55 7.74,-3 z"
   id="path5545" />
	<path
   style="fill:#feffff;stroke:#feffff;stroke-width:0.5"
   inkscape:connector-curvature="0"
   d="m 517.052,1276.427 c 1.96,0.14 3.93,0.52 5.66,1.55 8.45,4.63 15.64,11.14 23.1,17.17 l -0.84,0.57 c -3.93,2.47 -7.26,5.76 -10.21,9.32 -0.37,-0.45 -1.1,-1.35 -1.46,-1.8 -5.48,-6.55 -11,-13.18 -15.08,-20.72 -1.15,-1.84 -1.28,-4 -1.17,-6.09 z"
   id="path5547" />
	<path
   style="fill:#a152a1;stroke:#a152a1;stroke-width:0.5"
   inkscape:connector-curvature="0"
   d="m 667.662,1280.357 c 14.28,-1.97 28.68,-3.86 43.12,-3.41 4.51,0.52 9.97,0.27 13.35,3.83 1.27,2.93 -1.39,5.43 -3.33,7.25 -5.21,4.41 -11.32,7.57 -17.36,10.66 -16.79,8.29 -34.41,14.68 -51.97,21.09 0.11,3.09 0.16,6.19 0.21,9.3 17.11,6.09 34.11,12.62 50.42,20.65 6.7,3.42 13.54,6.9 19.16,12 1.57,1.63 3.59,3.79 2.74,6.26 -1.62,2.56 -4.93,3 -7.65,3.53 -11.17,1.45 -22.44,0.06 -33.57,-1.05 -13.16,-1.64 -26.32,-3.5 -39.26,-6.35 1.72,-5.4 4.24,-10.59 4.96,-16.27 0.17,-0.12 0.52,-0.36 0.7,-0.49 1.51,-7.68 2.77,-15.42 2.32,-23.28 0.57,-7.56 -2,-14.78 -2.46,-22.25 -0.26,-0.09 -0.78,-0.28 -1.04,-0.38 -0.35,-1.85 -0.69,-3.7 -1,-5.53 -0.2,-0.14 -0.59,-0.41 -0.78,-0.55 -1.25,-3.63 -2.83,-7.14 -4.64,-10.51 8.58,-2.05 17.37,-3.11 26.08,-4.5 z"
   id="path5549" />
	<path
   style="fill:#fefeff;stroke:#fefeff;stroke-width:0.5"
   inkscape:connector-curvature="0"
   d="m 605.272,1278.357 c 1.87,-1.26 4.16,-1.15 6.32,-1.16 -0.37,4.85 -3.43,8.81 -6.08,12.68 -3.93,5.63 -8.51,10.77 -12.74,16.18 l -0.66,-0.85 c -2.73,-3.81 -6.25,-6.97 -10.14,-9.53 7.35,-6.29 14.87,-12.52 23.3,-17.32 z"
   id="path5551" />
	<path
   style="fill:#548eaf;stroke:#548eaf;stroke-width:0.5"
   inkscape:connector-curvature="0"
   d="m 484.682,1283.967 c 0.38,-0.08 1.14,-0.24 1.52,-0.32 -1.79,6.3 -5.22,12.01 -6.69,18.43 -1.72,7.54 -3.76,15.16 -3.36,22.98 -0.51,13.46 3.66,26.49 8.04,39.05 l -1.38,-0.27 c -2.3,-5.79 -4.58,-11.62 -6.06,-17.68 -1.52,-5.46 -1.55,-11.17 -2.38,-16.73 1.38,-3.49 0.8,-7.3 0.84,-10.95 -0.07,-3.16 -0.02,-6.34 0.74,-9.41 1.95,-8.65 4.45,-17.3 8.73,-25.1 z"
   id="path5553" />
	<path
   style="fill:#a152a1;stroke:#a152a1;stroke-width:0.5"
   inkscape:connector-curvature="0"
   d="m 548.272,1293.967 c 4.53,-2.1 9.47,-3.26 14.46,-3.45 0.65,0.01 1.95,0.04 2.6,0.05 5.01,0.36 9.93,1.7 14.47,3.88 0.74,0.34 1.46,0.75 2.17,1.23 3.89,2.56 7.41,5.72 10.14,9.53 0.92,1.6 1.48,3.4 2.61,4.91 2.39,3.7 3.28,8.07 4.2,12.32 0.22,1.11 0.26,2.24 0.13,3.4 -0.37,4.06 -1.01,8.14 -2.42,12 -0.99,1.95 -1.7,4.05 -2.76,5.98 -2.45,4.19 -5.73,7.97 -9.83,10.6 -0.39,0.19 -1.15,0.57 -1.54,0.76 -1.19,0.85 -2.31,1.81 -3.59,2.51 -3.95,1.84 -8.2,2.91 -12.48,3.58 -1.72,0.21 -3.47,0.19 -5.18,0.01 -4.34,-0.54 -8.65,-1.5 -12.62,-3.35 -1.88,-0.95 -3.72,-2 -5.5,-3.11 -3.91,-2.64 -6.96,-6.3 -9.69,-10.09 -0.27,0.26 -0.8,0.77 -1.06,1.03 0.01,-1.94 -0.48,-3.78 -1.25,-5.51 -1.91,-4.49 -2.92,-9.33 -3.05,-14.19 -0.03,-1.44 0.03,-2.85 0.24,-4.24 0.61,-4.91 2.33,-9.56 4.59,-13.92 0.85,-1.44 0.54,-3.11 0.39,-4.66 0.36,0.45 1.09,1.35 1.46,1.8 2.95,-3.56 6.28,-6.85 10.21,-9.32 1.04,-0.69 2.15,-1.26 3.3,-1.75 z"
   id="path5555" />
	<path
   style="fill:#feffff;stroke:#feffff;stroke-width:0.5"
   inkscape:connector-curvature="0"
   d="m 500.042,1305.617 c 10.94,-2.34 22.02,0.83 32.87,2.28 -2.26,4.36 -3.98,9.01 -4.59,13.92 -7.99,-2.78 -15.91,-5.9 -23.31,-10 -2.29,-1.44 -5.61,-2.94 -4.97,-6.2 z"
   id="path5557" />
	<path
   style="fill:#feffff;stroke:#feffff;stroke-width:0.5"
   inkscape:connector-curvature="0"
   d="m 594.182,1308.387 c 9.79,-1.8 19.7,-3.52 29.7,-3.07 1.53,0.04 3.17,0.29 4.26,1.53 0.34,2.08 -2.04,3.12 -3.37,4.25 -8.02,5.01 -17.1,7.9 -25.85,11.34 -0.92,-4.25 -1.81,-8.62 -4.2,-12.32 -0.13,-0.43 -0.41,-1.29 -0.54,-1.73 z"
   id="path5559" />
	<path
   style="fill:#fefeff;stroke:#fefeff;stroke-width:0.5"
   inkscape:connector-curvature="0"
   d="m 504.682,1335.987 c 7.42,-4.12 15.4,-7.13 23.4,-9.93 0.13,4.86 1.14,9.7 3.05,14.19 -10.35,1.01 -20.93,4.14 -31.28,1.65 -0.32,-3.08 2.6,-4.57 4.83,-5.91 z"
   id="path5561" />
	<path
   style="fill:#feffff;stroke:#feffff;stroke-width:0.5"
   inkscape:connector-curvature="0"
   d="m 599.052,1325.837 c 8.34,3.39 16.95,6.3 24.74,10.91 1.78,1.07 3.57,2.35 4.47,4.32 -1.19,2.4 -4.29,1.98 -6.52,2.26 -8.63,-0.19 -17.24,-1.4 -25.68,-3.2 0.15,-0.58 0.43,-1.72 0.57,-2.29 1.41,-3.86 2.05,-7.94 2.42,-12 z"
   id="path5563" />
	<path
   style="fill:#a052a1;stroke:#a052a1;stroke-width:0.5"
   inkscape:connector-curvature="0"
   d="m 452.042,1337.367 c 7.42,-2.69 14.66,-6 22.33,-7.94 0.83,5.56 0.86,11.27 2.38,16.73 1.48,6.06 3.76,11.89 6.06,17.68 -14.56,2.98 -29.34,5 -44.13,6.44 -10.21,0.71 -20.67,1.88 -30.74,-0.51 -2.5,-0.54 -5.68,-2.76 -4.16,-5.68 2.77,-4.85 8.01,-7.54 12.59,-10.41 11.4,-6.43 23.52,-11.49 35.67,-16.31 z"
   id="path5565" />
	<path
   style="fill:#fefffe;stroke:#fefffe;stroke-width:0.5"
   inkscape:connector-curvature="0"
   d="m 593.872,1343.817 c 6,7.38 12.39,14.68 16.55,23.32 0.7,1.28 1.66,4.48 -0.81,4.37 -3.41,-0.32 -6.25,-2.57 -9.09,-4.27 -5.77,-3.91 -11.23,-8.25 -16.48,-12.82 4.1,-2.63 7.38,-6.41 9.83,-10.6 z"
   id="path5567" />
	<path
   style="fill:#feffff;stroke:#feffff;stroke-width:0.5"
   inkscape:connector-curvature="0"
   d="m 532.382,1345.757 c 0.26,-0.26 0.79,-0.77 1.06,-1.03 2.73,3.79 5.78,7.45 9.69,10.09 -6.81,5.47 -13.55,11.2 -21.33,15.28 -1.7,1 -3.71,0.68 -5.57,0.66 0.84,-6.32 5.38,-11.23 8.88,-16.27 2.35,-2.97 4.5,-6.13 7.27,-8.73 z"
   id="path5569" />
	<path
   style="fill:#fefeff;stroke:#fefeff;stroke-width:0.5"
   inkscape:connector-curvature="0"
   d="m 547.462,1357.417 1.17,0.51 c 3.97,1.85 8.28,2.81 12.62,3.35 -3.37,8.46 -6.29,17.3 -11.57,24.81 -0.8,1.46 -2.47,1.68 -3.94,2 -2.18,-10.17 0.23,-20.57 1.72,-30.67 z"
   id="path5571" />
	<path
   style="fill:#fefffe;stroke:#fefffe;stroke-width:0.5"
   inkscape:connector-curvature="0"
   d="m 566.432,1361.267 c 4.28,-0.67 8.53,-1.74 12.48,-3.58 l 1.28,-0.56 c 1.38,9.54 3.18,19.16 2.14,28.83 -0.36,0.71 -1.1,2.13 -1.46,2.85 -1.73,-1.29 -3.38,-2.71 -4.43,-4.6 -4.22,-7.23 -7.11,-15.12 -10.01,-22.94 z"
   id="path5573" />
	<path
   style="fill:#33abac;stroke:#33abac;stroke-width:0.5"
   inkscape:connector-curvature="0"
   d="m 544.222,1387.167 c -1.43,-4.96 -1.06,-10.28 0.07,-15.25 0.43,5.06 0.83,10.2 -0.07,15.25 z"
   id="path5575" />
	<path
   style="fill:#38afb0;stroke:#38afb0;stroke-width:0.5"
   inkscape:connector-curvature="0"
   d="m 583.292,1371.957 c 1.15,4.65 1.13,9.55 0.23,14.25 -1.42,-4.62 -0.64,-9.54 -0.23,-14.25 z"
   id="path5577" />
	<path
   style="fill:#a152a1;stroke:#a152a1;stroke-width:0.5"
   inkscape:connector-curvature="0"
   d="m 612.862,1398.867 c 10.12,-6.95 18.85,-15.87 25.33,-26.32 3.75,5.77 8.72,10.64 12.84,16.15 7.88,9.92 15.6,20 22.34,30.74 3.35,5.53 6.88,11.16 8.35,17.53 0.59,2.06 0.15,5.15 -2.37,5.63 -4.72,0.54 -9.07,-2.06 -13.17,-4.05 -19.33,-10.97 -36.35,-25.44 -53.32,-39.68 z"
   id="path5579" />
	<path
   style="fill:#a152a1;stroke:#a152a1;stroke-width:0.5"
   inkscape:connector-curvature="0"
   d="m 488.952,1373.117 c 6.47,10.15 15.12,18.82 24.88,25.82 -11.43,10.09 -23.52,19.45 -35.93,28.31 -7.23,4.95 -14.56,9.92 -22.68,13.29 -2.69,0.98 -5.86,2.06 -8.62,0.83 -2.21,-1.82 -1.19,-5.03 -0.61,-7.35 2.05,-6.05 5.48,-11.5 8.9,-16.86 10.21,-15.52 22.05,-29.88 34.06,-44.04 z"
   id="path5581" />
	<path
   style="fill:#a152a1;stroke:#a152a1;stroke-width:0.5"
   inkscape:connector-curvature="0"
   d="m 515.962,1462.017 c 0.97,-19.22 3.82,-38.34 7.62,-57.19 5.02,2.06 10,4.27 15.25,5.69 11.2,3.79 23.24,3.53 34.9,2.92 10.52,-0.61 20.31,-4.8 29.97,-8.67 2,8.91 3.15,17.99 4.5,27.02 1.73,13.67 3.49,27.45 2.66,41.25 -0.41,3.74 -0.67,7.98 -3.33,10.91 -2.57,1.73 -5.34,-0.65 -7.05,-2.49 -5.35,-6.06 -8.88,-13.43 -12.48,-20.6 -7.17,-15.14 -13.26,-30.8 -18.66,-46.65 -3.78,-0.1 -7.55,-0.09 -11.32,-0.04 -6.36,17.78 -13.22,35.46 -21.93,52.25 -3.13,5.65 -6.21,11.54 -10.97,16.02 -1.77,1.83 -5.32,2.8 -6.74,0.07 -3.14,-6.3 -2.4,-13.67 -2.42,-20.49 z"
   id="path5583" />
	<path
   style="fill:#2d7294;stroke:#2d7294;stroke-width:0.5"
   inkscape:connector-curvature="0"
   d="m 554.162,1618.047 c 0.09,-53.74 -0.18,-107.49 0.13,-161.22 5.6,0.12 11.2,0.06 16.8,0.05 0.04,111.51 0.03,223.02 0.01,334.53 -5.63,0.02 -11.26,-0.02 -16.88,0.04 -0.15,-57.8 -0.02,-115.6 -0.06,-173.4 z"
   id="path5585" />
	<path
   style="fill:#2d7395;stroke:#2d7395;stroke-width:0.5"
   inkscape:connector-curvature="0"
   d="m 619.422,1554.717 c 6.2,-2.48 13.19,-4 19.76,-2.12 4.54,1.25 8.34,4.89 9.76,9.41 1.92,5.89 0.86,12.29 -1.02,18.06 -3.37,9.68 -9.38,18.3 -16.58,25.54 -12.84,12.55 -32.09,15.47 -49.33,14.45 -0.85,-16.44 1.38,-34.41 12.33,-47.43 6.97,-7.63 15.49,-13.99 25.08,-17.91 z"
   id="path5587" />
	<path
   style="fill:#2d7395;stroke:#2d7395;stroke-width:0.5"
   inkscape:connector-curvature="0"
   d="m 487.542,1627.827 c 6.13,-1.18 12.45,0.03 18.23,2.2 8.83,3.34 16.63,9.02 23.25,15.7 5.45,5.53 8.78,12.8 10.64,20.28 2.55,10.03 2.69,20.5 1.61,30.75 -7.74,1.21 -15.68,0.75 -23.39,-0.42 -10.12,-1.61 -20.31,-5.39 -27.61,-12.83 -7.41,-7.73 -13.46,-17.04 -16.21,-27.46 -1.6,-6.57 -1.93,-14.02 1.58,-20.04 2.42,-4.41 7.05,-7.23 11.9,-8.18 z"
   id="path5589" />
</g><g
         id="g5679"
         transform="matrix(7.4999998,0,0,-7.4999998,868.46004,14890.732)">
	<path
   style="fill:#e04086;stroke:#e04086;stroke-width:0.5"
   inkscape:connector-curvature="0"
   d="m 179.792,909.367 c 15.65,-4.81 32.96,-4.58 48.34,1.13 10.18,3.8 19.77,10.88 24.04,21.16 3.69,8.42 2.62,17.94 0.64,26.65 3.97,-6.83 9.02,-13.4 16.22,-17.05 10.51,-5.76 23.48,-4.43 34.12,0.29 16.1,7.14 29.42,20.32 36.97,36.21 4.96,10.56 6.74,23.43 1.53,34.25 -3.38,7.39 -9.89,12.62 -16.55,16.95 6.21,-0.67 12.48,-2.28 18.71,-0.83 10.39,1.61 19.01,9 24.12,17.91 7.37,12.92 9.43,28.35 7.83,42.99 -1.4,11.53 -5.24,23.17 -13.06,31.98 -5.54,6.34 -13.58,10.43 -21.99,11.1 -5.76,0.66 -11.45,-0.76 -17.05,-1.9 7.71,4.29 14.96,10.28 18.46,18.61 4.93,11.24 2.55,24.27 -2.8,34.92 -7.15,14.04 -18.85,25.78 -32.87,32.98 -10.27,5.22 -22.72,7.79 -33.78,3.52 -9.35,-3.48 -16.03,-11.54 -20.59,-20.12 3.95,11.25 3.8,24.77 -3.61,34.61 -8.93,11.97 -24.16,17.31 -38.55,18.7 -4.98,0.22 -9.97,0.25 -14.95,0.02 -11.62,-1.04 -23.34,-4.71 -32.48,-12.15 -7.84,-6.28 -12.74,-16.2 -12.44,-26.29 -0.15,-4.45 1.07,-8.75 1.63,-13.12 -4.74,8.35 -11.74,15.99 -21.16,18.88 -12.73,4.15 -26.5,-0.19 -37.48,-6.98 -14.2,-9.02 -25.96,-22.61 -31.12,-38.77 -3.45,-10.74 -2.67,-23.39 4.38,-32.55 3.5,-5.12 8.86,-8.35 13.71,-12.01 -7.74,1.85 -16,2.76 -23.66,0.08 -11.64,-3.76 -19.64,-14.34 -23.64,-25.48 -6,-17 -5.78,-36.26 1.06,-52.97 4.26,-10.22 12.12,-19.67 23.02,-22.97 8.09,-2.71 16.8,-1.48 24.85,0.74 -8.65,-4.54 -16.61,-11.48 -19.85,-20.95 -3.99,-11.41 -1.15,-24.06 4.43,-34.43 7.91,-14.47 20.55,-26.51 35.72,-33.09 10.55,-4.59 23.32,-5.81 33.73,-0.16 7.05,3.56 11.95,9.96 16.04,16.51 -1.76,-8.33 -2.8,-17.29 0.56,-25.38 4.54,-11.76 15.88,-19.36 27.52,-22.99 m 14.24,49.13 c -17.29,1.52 -34.22,6.86 -49.28,15.48 -25.77,14.62 -45.87,38.97 -55.2,67.11 -10.96,32.3 -7.49,69.15 9.41,98.78 17.03,30.4 47.69,52.81 81.92,59.52 24.71,4.95 50.98,2.23 74,-8.14 28.8,-12.74 52.15,-37.15 63.65,-66.46 12.77,-31.93 11.11,-69.29 -4.56,-99.91 -13.95,-27.79 -38.96,-49.78 -68.33,-60 -16.47,-5.98 -34.2,-7.68 -51.61,-6.38 z"
   id="path5655" />
	<path
   style="fill:#fffdff;stroke:#fffdff;stroke-width:0.5"
   inkscape:connector-curvature="0"
   d="m 194.032,958.497 c 17.41,-1.3 35.14,0.4 51.61,6.38 29.37,10.22 54.38,32.21 68.33,60 15.67,30.62 17.33,67.98 4.56,99.91 -11.5,29.31 -34.85,53.72 -63.65,66.46 -23.02,10.37 -49.29,13.09 -74,8.14 -34.23,-6.71 -64.89,-29.12 -81.92,-59.52 -16.9,-29.63 -20.37,-66.48 -9.41,-98.78 9.33,-28.14 29.43,-52.49 55.2,-67.11 15.06,-8.62 31.99,-13.96 49.28,-15.48 m 0.03,6.94 c -19.11,1.8 -37.71,8.56 -53.56,19.37 -25.71,17.4 -43.9,45.56 -48.8,76.25 -4.91,28.86 1.83,59.46 18.41,83.59 20.8,30.86 57.34,50.56 94.65,50.17 36.6,0.61 72.69,-18.07 93.8,-47.89 14.37,-19.83 22.07,-44.39 21.54,-68.87 -0.24,-30.79 -13.8,-61.11 -36.34,-82.04 -23.66,-22.46 -57.25,-33.95 -89.7,-30.58 z"
   id="path5657" />
	<path
   style="fill:#e04086;stroke:#e04086;stroke-width:0.5"
   inkscape:connector-curvature="0"
   d="m 194.062,965.437 c 32.45,-3.37 66.04,8.12 89.7,30.58 22.54,20.93 36.1,51.25 36.34,82.04 0.53,24.48 -7.17,49.04 -21.54,68.87 -21.11,29.82 -57.2,48.5 -93.8,47.89 -37.31,0.39 -73.85,-19.31 -94.65,-50.17 -16.58,-24.13 -23.32,-54.73 -18.41,-83.59 4.9,-30.69 23.09,-58.85 48.8,-76.25 15.85,-10.81 34.45,-17.57 53.56,-19.37 m -10.57,53.14 c -2.41,3.34 -2.1,7.6 -2.05,11.5 -2.25,-3.86 -6.15,-6.8 -10.7,-7.13 -6.88,-0.48 -13.33,3.33 -17.99,8.11 -4.49,4.78 -8.15,11.21 -7.26,17.99 0.56,4.71 4.06,8.43 8.1,10.61 -4.25,-1.02 -9.06,-1.19 -12.76,1.49 -5.97,4.17 -8.13,11.95 -7.94,18.92 -0.11,6.93 2.11,14.76 8.2,18.74 3.4,2.4 7.74,2.13 11.68,1.68 -3.66,2.44 -6.91,6.04 -7.33,10.61 -0.7,7.22 3.4,13.97 8.47,18.78 4.98,4.61 11.87,8.15 18.81,6.66 3.81,-0.76 6.55,-3.7 8.86,-6.6 -0.42,4.31 -0.25,9.09 2.77,12.54 4.95,5.68 13.08,7.4 20.31,6.93 6.61,-0.51 14.02,-3.09 17.24,-9.33 1.86,-3.37 1.46,-7.32 1.08,-10.98 2.07,4.06 6.03,7.34 10.69,7.7 6.65,0.71 12.87,-2.88 17.54,-7.29 4.84,-4.78 8.76,-11.38 8.09,-18.4 -0.44,-4.66 -3.82,-8.3 -7.57,-10.74 3.95,0.59 8.35,0.91 11.82,-1.48 5.91,-3.81 8.07,-11.24 8.44,-17.89 0.09,-7.1 -1.75,-15 -7.65,-19.52 -3.73,-3.1 -8.9,-2.5 -13.35,-1.85 5.13,-2.35 8.86,-7.74 8.39,-13.49 -0.63,-7.48 -5.43,-14.03 -11.26,-18.46 -4.83,-3.58 -11.29,-6.07 -17.24,-4.06 -3.43,1 -5.78,3.82 -7.9,6.52 0.53,-3.88 0.65,-8.16 -1.72,-11.5 -4,-5.99 -11.59,-8.28 -18.48,-8.3 -7.1,-0.09 -15.14,2.01 -19.29,8.24 z"
   id="path5659" />
	<path
   style="fill:#ffffff;stroke:#ffffff;stroke-width:0.5"
   inkscape:connector-curvature="0"
   d="m 183.492,1018.577 c 4.15,-6.23 12.19,-8.33 19.29,-8.24 6.89,0.02 14.48,2.31 18.48,8.3 2.37,3.34 2.25,7.62 1.72,11.5 2.12,-2.7 4.47,-5.52 7.9,-6.52 5.95,-2.01 12.41,0.48 17.24,4.06 5.83,4.43 10.63,10.98 11.26,18.46 0.47,5.75 -3.26,11.14 -8.39,13.49 4.45,-0.65 9.62,-1.25 13.35,1.85 5.9,4.52 7.74,12.42 7.65,19.52 -0.37,6.65 -2.53,14.08 -8.44,17.89 -3.47,2.39 -7.87,2.07 -11.82,1.48 3.75,2.44 7.13,6.08 7.57,10.74 0.67,7.02 -3.25,13.62 -8.09,18.4 -4.67,4.41 -10.89,8 -17.54,7.29 -4.66,-0.36 -8.62,-3.64 -10.69,-7.7 0.38,3.66 0.78,7.61 -1.08,10.98 -3.22,6.24 -10.63,8.82 -17.24,9.33 -7.23,0.47 -15.36,-1.25 -20.31,-6.93 -3.02,-3.45 -3.19,-8.23 -2.77,-12.54 -2.31,2.9 -5.05,5.84 -8.86,6.6 -6.94,1.49 -13.83,-2.05 -18.81,-6.66 -5.07,-4.81 -9.17,-11.56 -8.47,-18.78 0.42,-4.57 3.67,-8.17 7.33,-10.61 -3.94,0.45 -8.28,0.72 -11.68,-1.68 -6.09,-3.98 -8.31,-11.81 -8.2,-18.74 -0.19,-6.97 1.97,-14.75 7.94,-18.92 3.7,-2.68 8.51,-2.51 12.76,-1.49 -4.04,-2.18 -7.54,-5.9 -8.1,-10.61 -0.89,-6.78 2.77,-13.21 7.26,-17.99 4.66,-4.78 11.11,-8.59 17.99,-8.11 4.55,0.33 8.45,3.27 10.7,7.13 -0.05,-3.9 -0.36,-8.16 2.05,-11.5 z"
   id="path5661" />
	<path
   style="fill:#54c4c6;stroke:#54c4c6;stroke-width:0.5"
   inkscape:connector-curvature="0"
   d="m 194.972,1253.447 c 4.98,0.23 9.97,0.2 14.95,-0.02 0.25,94.93 -0.04,189.85 0.14,284.78 11.57,-14.68 25.76,-27.05 40.76,-38.1 11.01,-7.98 22.33,-15.65 34.67,-21.45 22.59,-10.56 47.24,-17.02 72.16,-18.27 -7.56,14.89 -17.6,28.44 -28.76,40.83 -10.97,12.15 -23.58,22.85 -37.56,31.41 -17.8,11.03 -36.52,20.97 -56.61,27.14 -7.94,2.19 -16.31,4.4 -24.57,2.74 -0.33,53.51 -0.04,107.04 -0.14,160.55 -0.01,60.09 0.03,120.18 -0.02,180.26 -5.02,0.1 -10.03,0.14 -15.05,-0.02 -0.77,-18.75 0.12,-37.52 -0.38,-56.26 0.16,-14.31 0.62,-28.63 0.01,-42.94 0.32,-25.36 -0.25,-50.71 0.38,-76.06 -0.81,-32 0.01,-64.01 -0.39,-96.01 -0.01,-5.33 0.61,-10.65 0.09,-15.96 -0.04,-11.34 0.21,-22.68 -0.08,-34.02 0.74,-8.99 -0.51,-17.99 0.37,-26.98 -0.6,-13.65 -0.25,-27.33 -0.13,-40.99 -0.24,-40.02 0.05,-80 -0.22,-120.01 0.05,-21.01 0.25,-42.02 0.02,-63.03 0.78,-8.68 -0.36,-17.37 -0.02,-26.06 -0.33,-7.32 0.71,-14.64 0.11,-21.94 -0.49,-9.87 0.32,-19.73 0.27,-29.59 z"
   id="path5663" />
	<path
   style="fill:#54c4c6;stroke:#54c4c6;stroke-width:0.5"
   inkscape:connector-curvature="0"
   d="m 30.702,1333.717 c 18.33,0.71 36.44,4.83 53.79,10.71 16.65,5.73 32.29,14.13 46.57,24.4 15.99,11.3 31.47,23.71 43.98,38.88 4.19,5.49 8.55,11.33 9.76,18.3 0.86,3.76 -1.34,7.86 -4.99,9.17 -6.15,2.27 -12.82,1.02 -19.03,-0.26 -14.84,-3.39 -28.82,-9.72 -42.31,-16.61 -16.54,-8.86 -32.84,-18.53 -46.66,-31.34 -16.52,-15.28 -30.8,-33.21 -41.11,-53.25 z"
   id="path5665" />
	<path
   style="fill:#54c4c6;stroke:#54c4c6;stroke-width:0.5"
   inkscape:connector-curvature="0"
   d="m 358.762,1334.917 c 4.71,-0.42 9.4,-1.37 14.15,-1.14 -7.72,15.31 -18.12,29.16 -29.63,41.82 -10.92,11.87 -23.41,22.33 -37.2,30.72 -18.1,11.2 -37.19,21.17 -57.67,27.24 -7.75,1.87 -16.05,4.31 -23.94,1.82 -3.61,-0.96 -6.19,-4.63 -5.75,-8.34 0.8,-7.11 5.16,-13.09 9.34,-18.62 9.37,-11.61 20.64,-21.55 32.39,-30.69 13.71,-10.35 27.9,-20.33 43.67,-27.3 17.33,-7.79 35.84,-12.88 54.64,-15.51 z"
   id="path5667" />
	<path
   style="fill:#54c4c6;stroke:#54c4c6;stroke-width:0.5"
   inkscape:connector-curvature="0"
   d="m 30.822,1460.397 c 21.94,1.05 43.62,6.39 63.92,14.67 16.12,6.51 30.72,16.14 44.63,26.45 12.79,9.67 25.18,20.1 35.38,32.55 4.21,5.4 8.52,11.11 9.97,17.95 1.08,3.96 -1.01,8.63 -5.03,9.94 -6.23,2.16 -12.98,0.9 -19.26,-0.39 -15.34,-3.62 -29.79,-10.22 -43.71,-17.49 -15.87,-8.55 -31.47,-17.95 -44.75,-30.25 -13.73,-12.48 -25.56,-27.01 -35.34,-42.77 -2.1,-3.46 -4.34,-6.87 -5.81,-10.66 z"
   id="path5669" />
	<path
   style="fill:#54c4c6;stroke:#54c4c6;stroke-width:0.5"
   inkscape:connector-curvature="0"
   d="m 307.612,1611.917 c 20.63,-8.76 42.78,-13.89 65.14,-15.38 -2.27,6.35 -6.47,11.8 -10.02,17.49 -12.21,18.02 -27.15,34.32 -44.68,47.29 -10.68,7.71 -22.13,14.3 -33.75,20.46 -11.72,6.03 -23.85,11.37 -36.55,14.97 -6.8,1.8 -13.92,3.39 -20.97,2.29 -3.58,-0.56 -7.74,-2.89 -7.81,-6.95 -0.71,-6.48 3.14,-12.16 6.56,-17.28 8.65,-11.88 19.68,-21.78 31.04,-30.99 15.8,-12.39 32.41,-24.15 51.04,-31.9 z"
   id="path5671" />
	<path
   style="fill:#54c4c6;stroke:#54c4c6;stroke-width:0.5"
   inkscape:connector-curvature="0"
   d="m 33.532,1602.227 c -1.08,-1.82 -2.2,-3.66 -2.54,-5.76 23.28,1.77 46.39,7.1 67.75,16.64 14.74,6.4 28.11,15.46 40.98,24.98 13.49,10.3 26.65,21.36 37.04,34.87 3.75,5.12 7.43,10.72 8.23,17.17 0.26,3.76 -2.27,7.31 -5.9,8.33 -6.99,2.06 -14.42,0.44 -21.33,-1.21 -19.61,-5.31 -37.87,-14.6 -55.28,-24.91 -28.86,-16.49 -52.32,-41.49 -68.95,-70.11 z"
   id="path5673" />
	<path
   style="fill:#54c4c6;stroke:#54c4c6;stroke-width:0.5"
   inkscape:connector-curvature="0"
   d="m 35.852,1752.017 c -1.71,-3.13 -4.02,-6.02 -4.85,-9.54 23.59,1.58 46.98,7.2 68.56,16.9 15.55,6.87 29.56,16.66 43.09,26.83 12.79,10.04 25.32,20.75 35.05,33.89 3.33,4.79 6.59,9.99 7.29,15.91 0.29,3.83 -2.3,7.41 -6,8.39 -7.32,2.21 -15.04,0.21 -22.24,-1.51 -20.83,-5.84 -40.15,-16.01 -58.53,-27.23 -25.72,-15.54 -46.76,-38.11 -62.37,-63.64 z"
   id="path5675" />
	<path
   style="fill:#54c4c6;stroke:#54c4c6;stroke-width:0.5"
   inkscape:connector-curvature="0"
   d="m 274.362,1776.537 c 28.54,-20.58 63.25,-31.65 98.19,-34.07 -0.37,2.13 -1.44,4.03 -2.54,5.88 -10.22,17.46 -22.89,33.52 -37.8,47.21 -13.91,13.03 -30.43,22.81 -47.16,31.74 -14.07,7.18 -28.67,13.78 -44.22,17 -6.22,1.03 -13.31,2.26 -18.96,-1.3 -3.7,-2.33 -3.29,-7.35 -2.35,-11.02 2.19,-6.54 6.44,-12.13 10.79,-17.38 12.72,-14.76 28.1,-26.98 44.05,-38.06 z"
   id="path5677" />
</g><path
         id="path3009"
         style="fill:#379c56"
         inkscape:connector-curvature="0"
         d="m 4238.7,438.91 c -265.3,4.7351 -531.36,-83.32 -741.46,-245.38 80.115,198.17 217.88,372.61 392.12,496.42 -304.47,-21.844 -597.07,-176.53 -786.53,-415.85 1.2732,275.13 98.195,548.98 270.34,763.67 -323.06,-149.6 -597.93,-401.34 -775.22,-710.13 -52.765,334.41 -4.9912,684.05 135.68,991.98 C 2444.85,1068.56 2238.94,723.73 2155,350.34 c -98.042,284.04 -196.03,568.04 -294.08,852.04 -61.474,-270.81 -78.74,-551.65 -50.829,-827.95 -94.987,215.38 -221.6,416.82 -374.5,595.86 58.927,-267.19 55.006,-431.15 10.135,-700.98 -151.52,289.71 -356.82,430.63 -617.69,627.63 204.18,-283.16 336.91,-617.34 383.31,-963.35 h 2408.6 c 143,197.9 408.6,398.98 618.8,505.32" /><path
         id="path3013"
         style="fill:#4faf75"
         inkscape:connector-curvature="0"
         d="M 4575.8,315.4 C 4450.9,246.28 4320.9,53.06 4242.7,-66.42 c -5.3,235.29 107.5,589.98 294.5,732.99 -188.4,-91.46 -387.1,-192.51 -494.2,-372.5 60.659,271.41 181.16,529.27 350.46,749.96 68.553,89.267 155.29,178.14 267.13,190.93 -206.93,-22.4 -406.69,-107.21 -566.61,-240.49 -159.87,-133.3 -279.31,-314.5 -338.64,-514.05 17.164,246.76 -20.22,497.17 -108.74,728.16 -14.668,-250.28 -29.387,-500.6 -44.106,-750.94 -80.573,258.43 -251.09,487.93 -475.29,639.6 158.29,-244.57 247.12,-533.56 253.48,-824.83 -131.76,187.31 -315.26,337.82 -524.74,430.35 207.85,-187.51 325.76,-488.58 318.83,-769.2 h 1146.9 c 51.084,145.81 139.19,278.53 254.1,381.82" /><path
         id="path3017"
         style="fill:#379c56"
         inkscape:connector-curvature="0"
         d="m 5428.8,467.28 c 280.22,5.0524 561.21,-87.957 783.12,-259.13 -84.597,209.28 -230.11,393.54 -414.17,524.27 321.58,-23.016 630.63,-186.45 830.74,-439.22 -1.3242,290.66 -103.7,579.86 -285.52,806.6 341.24,-157.98 631.55,-423.9 818.77,-750.02 55.77,353.22 5.2969,722.47 -143.32,1047.7 305.08,-265.1 522.55,-629.36 611.22,-1023.7 103.54,299.98 207.04,599.97 310.58,899.91 64.937,-286.03 83.171,-582.66 53.681,-874.5 100.33,227.52 234.08,440.26 395.53,629.36 -62.238,-282.15 -58.112,-455.31 -10.645,-740.37 159.97,305.98 376.79,454.86 652.38,662.9 -215.8,-299.12 -356,-652.03 -405,-1017.5 h -2544 c -150.9,209.01 -431.4,421.39 -653.5,533.7" /><g
         id="g5507"
         transform="matrix(-7.4999998,0,0,-7.4999998,13367.51,12217.747)">
	<path
   style="fill:#a75fa8;stroke:#a75fa8;stroke-width:0.5"
   inkscape:connector-curvature="0"
   d="m 1135.813,1125.707 c 8.28,-1.76 17.93,-2.08 24.98,3.35 4.57,3.36 6.59,8.97 7.57,14.35 1.33,-5.69 3.26,-11.75 8.33,-15.23 7.94,-5.54 18.34,-4.72 27.3,-2.57 15.5,4.09 30.04,12.49 40.81,24.42 5.6,6.43 10.48,14.95 8.64,23.76 -0.94,5.07 -4.58,8.88 -8.04,12.43 4.6,-1.43 9.56,-2.68 14.35,-1.3 7.26,1.95 12.28,8.33 15.34,14.87 5.84,12.83 7.03,27.36 5.61,41.26 -1.19,9.34 -3.55,18.94 -9.35,26.57 -3.41,4.57 -8.67,8.09 -14.5,8.26 -3.54,0.32 -6.97,-0.68 -10.3,-1.68 4,4.02 8.24,8.49 8.68,14.49 0.9,10.54 -5.93,19.77 -13.06,26.79 -11.67,10.98 -26.37,19.14 -42.25,21.85 -8.13,1.26 -17.68,0.49 -23.61,-5.87 -3.24,-3.13 -4.08,-7.67 -5.79,-11.63 -1.08,6.55 -4.5,13.2 -10.8,16.05 -10.04,4.65 -21.61,2.15 -31.63,-1.25 -13.11,-4.88 -25.47,-12.53 -34.58,-23.26 -5.33,-6.39 -9.69,-14.83 -7.6,-23.35 1.01,-4.93 4.73,-8.5 8.07,-11.98 -4.63,1.56 -9.65,2.88 -14.49,1.45 -7.78,-2.08 -12.91,-9.13 -15.99,-16.16 -4.76,-11.09 -5.99,-23.39 -5.38,-35.35 0.58,-9.67 2.58,-19.5 7.51,-27.95 3.08,-5.29 7.93,-10.02 14.14,-11.18 4.38,-1.11 8.8,0.29 13.09,1.21 -4.28,-3.59 -8.26,-8.18 -8.84,-13.96 -1.16,-9.85 4.89,-18.65 11.3,-25.49 11.039,-11.12 25.189,-19.34 40.49,-22.9 m 42.789,21.24 c -5.39,1.64 -8.39,7.07 -9.67,12.22 -2.28,-3.75 -3.53,-8.45 -7.51,-10.85 -3.81,-2.16 -8.38,-1.88 -12.6,-1.91 -7.09,-0.3 -13.74,2.67 -20.05,5.53 -10.39,5.37 -20.41,12.87 -25.67,23.6 -2.36,4.37 -2.48,9.76 -0.84,14.39 1.24,2.07 3,3.78 4.44,5.74 -6.17,-0.85 -13.1,0.01 -17.4,4.96 -7.81,9.56 -9.42,22.56 -9.06,34.5 0.8,5.87 1.1,11.95 3.66,17.41 2.23,6.83 6.84,13.27 13.78,15.86 3.01,0.45 6.07,0.12 9.11,0.08 -1.37,2.54 -3.08,4.91 -4.07,7.64 -1.4,4.63 0.11,9.58 2.18,13.78 3.75,6.6 9.83,11.43 15.49,16.33 7.76,4.38 16.15,7.68 24.69,10.21 5.91,0.48 12.53,1.27 17.71,-2.33 4.03,-2.27 5.62,-6.82 7.64,-10.7 1.63,0.78 1.58,3.58 2.67,5.1 3.35,7.3 12.51,8.79 19.68,7.89 8.16,-1.52 16.36,-4.04 23.14,-9 7.7,-4.71 14.98,-10.69 19.5,-18.64 2.74,-4.36 2.32,-9.81 1.81,-14.7 -0.32,-2.61 -4.03,-4.83 -2.7,-7.33 2.91,-0.2 5.92,0.38 8.78,-0.38 7.39,-2.99 11.45,-10.75 13.26,-18.11 2.59,-7.47 1.71,-15.5 1.78,-23.25 -0.08,-10.29 -3.25,-21.43 -11.52,-28.11 -4.14,-3.68 -9.99,-2.31 -15.01,-2.31 1.31,-3.97 5.08,-7.06 4.64,-11.52 0.72,-6.44 -2.74,-12.27 -6.71,-17 -7.93,-8.47 -18.14,-14.6 -29.06,-18.39 -7.11,-2.13 -14.94,-3.4 -22.09,-0.71 z"
   id="path5495" />
	<path
   style="fill:#ef8142;stroke:#ef8142;stroke-width:0.5"
   inkscape:connector-curvature="0"
   d="m 1178.602,1146.947 c 7.15,-2.69 14.98,-1.42 22.09,0.71 10.92,3.79 21.13,9.92 29.06,18.39 3.97,4.73 7.43,10.56 6.71,17 0.44,4.46 -3.33,7.55 -4.64,11.52 5.02,0 10.87,-1.37 15.01,2.31 8.27,6.68 11.44,17.82 11.52,28.11 -0.07,7.75 0.81,15.78 -1.78,23.25 -1.81,7.36 -5.87,15.12 -13.26,18.11 -2.86,0.76 -5.87,0.18 -8.78,0.38 -1.33,2.5 2.38,4.72 2.7,7.33 0.51,4.89 0.93,10.34 -1.81,14.7 -4.52,7.95 -11.8,13.93 -19.5,18.64 -6.78,4.96 -14.98,7.48 -23.14,9 -7.17,0.9 -16.33,-0.59 -19.68,-7.89 -1.09,-1.52 -1.04,-4.32 -2.67,-5.1 -2.02,3.88 -3.61,8.43 -7.64,10.7 -5.18,3.6 -11.8,2.81 -17.71,2.33 -8.54,-2.53 -16.93,-5.83 -24.69,-10.21 -5.66,-4.9 -11.74,-9.73 -15.49,-16.33 -2.07,-4.2 -3.58,-9.15 -2.18,-13.78 0.99,-2.73 2.7,-5.1 4.07,-7.64 -3.04,0.04 -6.1,0.37 -9.11,-0.08 -6.94,-2.59 -11.55,-9.03 -13.78,-15.86 -2.56,-5.46 -2.86,-11.54 -3.66,-17.41 -0.36,-11.94 1.25,-24.94 9.06,-34.5 4.3,-4.95 11.23,-5.81 17.4,-4.96 -1.44,-1.96 -3.2,-3.67 -4.44,-5.74 -1.64,-4.63 -1.52,-10.02 0.84,-14.39 5.26,-10.73 15.28,-18.23 25.67,-23.6 6.31,-2.86 12.96,-5.83 20.05,-5.53 4.22,0.03 8.79,-0.25 12.6,1.91 3.98,2.4 5.23,7.1 7.51,10.85 1.28,-5.15 4.28,-10.58 9.67,-12.22 m -27.38,16.22 c -11.07,1.52 -21.31,7.31 -29.12,15.18 -4.31,4.36 -8.06,10.21 -7.1,16.62 0.2,3.72 2.97,6.46 5.54,8.85 -5.45,-2.68 -12.6,-1.06 -16.07,4 -5.8,8.06 -6.74,18.57 -6.2,28.2 0.89,8.03 2.72,16.85 9.06,22.45 3.67,3.26 8.91,3.16 13.35,1.76 -2.52,2.68 -5.02,5.91 -4.83,9.8 -0.41,5.32 2.76,10 6.18,13.76 5.64,6.04 12.82,10.53 20.52,13.46 6.03,2.22 12.78,3.41 19.09,1.68 5.1,-1.59 8.2,-6.69 8.78,-11.79 0.56,2.77 1.2,5.73 3.19,7.9 2.94,3.49 7.78,4.64 12.19,4.38 9.46,-0.62 18.37,-4.84 25.86,-10.49 4.99,-3.99 9.78,-8.75 12.01,-14.88 1.5,-4.51 0.91,-10.25 -3.07,-13.32 -0.89,-0.98 -2.67,-1.5 -2.38,-3.06 1.06,2.68 4.3,1.74 6.54,2.04 4.38,0.29 8.36,-2.52 10.63,-6.1 4.9,-7.52 5.96,-16.87 5.68,-25.64 -0.76,-8.57 -2.52,-18.11 -9.31,-24.05 -3.51,-3.29 -8.58,-2.87 -12.94,-2.07 2.18,-2.48 4.48,-5.26 4.63,-8.71 0.57,-5.34 -2.5,-10.15 -5.8,-14.04 -5.47,-6.12 -12.63,-10.56 -20.2,-13.62 -6.33,-2.35 -13.46,-4.08 -20.08,-1.93 -4.8,1.62 -7.99,6.35 -8.37,11.32 -0.89,-2.89 -1.74,-5.97 -3.99,-8.11 -3.51,-3.66 -9.03,-4.07 -13.79,-3.59 z"
   id="path5497" />
	<path
   style="fill:#ffffff;stroke:#ffffff;stroke-width:0.5"
   inkscape:connector-curvature="0"
   d="m 1151.222,1163.167 c 4.76,-0.48 10.28,-0.07 13.79,3.59 2.25,2.14 3.1,5.22 3.99,8.11 0.38,-4.97 3.57,-9.7 8.37,-11.32 6.62,-2.15 13.75,-0.42 20.08,1.93 7.57,3.06 14.73,7.5 20.2,13.62 3.3,3.89 6.37,8.7 5.8,14.04 -0.15,3.45 -2.45,6.23 -4.63,8.71 4.36,-0.8 9.43,-1.22 12.94,2.07 6.79,5.94 8.55,15.48 9.31,24.05 0.28,8.77 -0.78,18.12 -5.68,25.64 -2.27,3.58 -6.25,6.39 -10.63,6.1 -2.24,-0.3 -5.48,0.64 -6.54,-2.04 -0.29,1.56 1.49,2.08 2.38,3.06 3.98,3.07 4.57,8.81 3.07,13.32 -2.23,6.13 -7.02,10.89 -12.01,14.88 -7.49,5.65 -16.4,9.87 -25.86,10.49 -4.41,0.26 -9.25,-0.89 -12.19,-4.38 -1.99,-2.17 -2.63,-5.13 -3.19,-7.9 -0.58,5.1 -3.68,10.2 -8.78,11.79 -6.31,1.73 -13.06,0.54 -19.09,-1.68 -7.7,-2.93 -14.88,-7.42 -20.52,-13.46 -3.42,-3.76 -6.59,-8.44 -6.18,-13.76 -0.19,-3.89 2.31,-7.12 4.83,-9.8 -4.44,1.4 -9.68,1.5 -13.35,-1.76 -6.34,-5.6 -8.17,-14.42 -9.06,-22.45 -0.54,-9.63 0.4,-20.14 6.2,-28.2 3.47,-5.06 10.62,-6.68 16.07,-4 -2.57,-2.39 -5.34,-5.13 -5.54,-8.85 -0.96,-6.41 2.79,-12.26 7.1,-16.62 7.81,-7.87 18.05,-13.66 29.12,-15.18 m 10.01,45.56 c -11.48,3.14 -19,15.92 -16.17,27.49 2.34,12.21 15.52,20.83 27.66,17.95 12.52,-2.19 21.27,-15.82 18.14,-28.13 -2.5,-12.89 -17.15,-21.48 -29.63,-17.31 z"
   id="path5499" />
	<path
   style="fill:#175971;stroke:#175971;stroke-width:0.5"
   inkscape:connector-curvature="0"
   d="m 1161.232,1208.727 c 12.48,-4.17 27.13,4.42 29.63,17.31 3.13,12.31 -5.62,25.94 -18.14,28.13 -12.14,2.88 -25.32,-5.74 -27.66,-17.95 -2.83,-11.57 4.69,-24.35 16.17,-27.49 z"
   id="path5501" />
	<path
   style="fill:#175971;stroke:#175971;stroke-width:0.5"
   inkscape:connector-curvature="0"
   d="m 1165.362,1341.597 c 3.96,-0.02 7.94,0.01 11.92,-0.04 0.1,67.26 0.14,134.52 -0.02,201.78 -3.97,-0.06 -7.94,-0.05 -11.89,-0.04 -0.03,-67.24 0,-134.47 -0.01,-201.7 z"
   id="path5503" />
	<path
   style="fill:#175971;stroke:#175971;stroke-width:0.5"
   inkscape:connector-curvature="0"
   d="m 1215.142,1367.407 c 4.56,-2.16 9.76,-3.82 14.83,-2.62 4.41,1.12 6.42,6.12 5.89,10.31 -0.94,7.66 -5.07,14.49 -9.74,20.47 -3.43,4.14 -7.18,8.18 -11.89,10.89 -8.27,4.84 -17.94,6.88 -27.44,7.04 0.11,-11.83 3.22,-24.23 11.22,-33.26 4.94,-5.18 10.681,-9.67 17.13,-12.83 z"
   id="path5505" />
</g><path
         id="path3023"
         style="fill:#49be6e"
         inkscape:connector-curvature="0"
         d="M 4495.9,804.64 C 4787.07,704.37 5055.68,539 5276.32,324.12 c -196.59,452.22 -417.38,932.89 -839.75,1187.4 463.42,-82.264 884.67,-377.09 1120.6,-784.34 104.92,381.92 123.51,787.39 53.936,1177.4 235.76,-346.69 495.36,-1059.7 372.2,-1460.4 198.58,474.87 400.06,564.2 765.6,702.23 -342,-245.04 -488.7,-745.37 -420.3,-1212.8 h -1102.7 c -206.8,350.17 -387.8,651.33 -730,871.04" /><path
         id="path3025"
         style="fill:#0c7771"
         inkscape:connector-curvature="0"
         d="m 4302.8,-66.425 c -6.5701,265.4 -140.16,521.07 -353.62,678.95 190.58,-37.18 406.69,-92.786 494.44,-266.01 -8.9639,274.93 -62.645,548.33 -158.24,806.21 246.3,-140.48 415.19,-408.33 435.82,-691.15 87.754,305.74 215.03,600.13 377.71,873.43 -56.584,-301.63 -53.783,-614.28 8.149,-914.87 134.25,168.01 313.23,299.92 513.39,378.46 -235.1,-197.75 -385.7,-557.11 -416.2,-865.08 h -901.38" /><path
         id="path3027"
         style="fill:#0c7771"
         inkscape:connector-curvature="0"
         d="m 2178,-66.425 c 6.6211,266.73 140.88,523.61 355.4,682.28 -191.55,-37.383 -408.72,-93.209 -496.94,-267.35 9.0148,276.3 62.951,551.07 159.06,810.26 -247.58,-141.17 -417.28,-410.35 -438.06,-694.59 -88.162,307.26 -216.1,603.12 -379.59,877.81 56.89,-303.16 54.089,-617.4 -8.1999,-919.53 -134.9,168.9 -314.8,301.48 -516.02,380.42 236.42,-198.63 387.72,-559.78 418.42,-869.28 h 905.91" /><path
         id="path3037"
         style="fill:#379c56"
         inkscape:connector-curvature="0"
         d="m 3636.4,474.98 c 284.25,5.0931 569.31,-89.231 794.37,-262.91 -85.819,212.34 -233.42,399.19 -420.08,531.87 326.16,-23.433 639.64,-189.16 842.61,-445.55 -1.3242,294.79 -105.17,588.15 -289.59,818.1 346.13,-160.21 640.61,-429.95 830.53,-760.75 56.585,358.29 5.3478,732.85 -145.36,1062.7 309.41,-268.92 529.99,-638.37 619.93,-1038.4 105.02,304.27 210.04,608.53 315.06,912.8 65.854,-290.11 84.342,-590.96 54.445,-887.02 101.76,230.76 237.39,446.56 401.24,638.37 C 6576.4,758 6580.577,582.35 6628.707,293.21 c 162.32,310.36 382.24,461.39 661.75,672.43 -218.7,-303.35 -360.9,-661.34 -410.6,-1032.1 h -2580.5 c -153.2,212.06 -437.7,427.5 -662.9,541.44" /><path
         id="path3041"
         style="fill:#4faf75"
         inkscape:connector-curvature="0"
         d="m 3275.2,342.66 c 133.9,-74.049 273.09,-281.04 356.87,-409.08 5.7043,252.11 -115.16,632.04 -315.42,785.29 201.79,-97.981 414.73,-206.21 529.38,-399.09 -64.988,290.77 -194.1,567.07 -375.52,803.44 -73.392,95.715 -166.34,190.89 -286.18,204.6 221.7,-24.034 435.77,-114.85 607.05,-257.66 171.33,-142.77 299.22,-336.96 362.78,-550.71 -18.386,264.36 21.697,532.69 116.53,780.16 15.738,-268.2 31.475,-536.41 47.213,-804.57 86.379,276.92 269.02,522.72 509.26,685.28 -169.6,-262.02 -264.8,-571.69 -271.6,-883.74 141.1,200.72 337.7,361.97 562.2,461.09 -222.7,-200.95 -349,-523.42 -341.6,-824.08 h -1228.8 c -54.7,156.2 -149.13,298.4 -272.23,409.08" /><path
         id="path3045"
         style="fill:#379c56"
         inkscape:connector-curvature="0"
         d="m 2361.3,505.37 c -300.19,5.3936 -601.24,-94.221 -838.99,-277.63 90.606,224.22 246.56,421.62 443.71,561.74 -344.5,-24.773 -675.6,-199.81 -889.97,-470.62 1.3752,311.4 111.08,621.22 305.89,864.16 C 1016.34,1013.82 705.31,728.88 504.69,379.5 444.95,757.9 499.04,1153.52 658.25,1501.9 331.43,1217.9 98.42,827.68 3.43,405.2 -107.5,726.57 -218.38,1048 -329.3,1369.3 c -69.572,-306.46 -89.079,-624.22 -57.501,-936.89 -107.52,243.78 -250.79,471.73 -423.8,674.28 66.72,-302.32 62.289,-487.8 11.46,-793.19 -171.43,327.79 -403.73,487.31 -698.93,710.23 231.02,-320.45 381.22,-698.57 433.73,-1090.1 h 2725.5 c 161.76,223.94 462.25,451.46 700.15,571.8" /><path
         id="path3051"
         style="fill:#49be6e"
         inkscape:connector-curvature="0"
         d="m 3059.3,750.21 c -273,-94.03 -524.8,-249.07 -731.6,-450.49 184.3,423.95 391.2,874.58 787.2,1113.2 -434.4,-77.1 -829.4,-353.5 -1050.5,-735.33 -98.4,358.13 -115.8,738.23 -50.7,1103.8 -220.9,-325 -464.3,-993.45 -348.9,-1369.2 -186.1,445.26 -375,529 -717.71,658.4 320.71,-229.7 458.21,-698.76 394.01,-1137 h 1033.8 c 193.84,328.35 363.55,610.61 684.41,816.63" /><path
         id="path3053"
         style="fill:#0c7771"
         inkscape:connector-curvature="0"
         d="m 3567.7,-66.425 c 7.0794,284.34 150.2,558.25 378.88,727.4 -204.18,-39.828 -435.67,-99.377 -529.74,-284.96 9.626,294.46 67.127,587.38 169.55,863.68 -263.87,-150.51 -444.83,-437.45 -466.94,-740.43 -93.968,327.53 -230.36,642.91 -404.65,935.76 60.608,-323.21 57.654,-658.15 -8.7092,-980.19 -143.83,179.99 -335.59,321.32 -550.06,405.48 252.06,-211.78 413.31,-596.83 446,-926.75 h 965.65" /><path
         id="path3055"
         style="fill:#0c7771"
         inkscape:connector-curvature="0"
         d="m 5784.2,-141.425 c -7.0794,285.77 -150.96,560.96 -380.81,730.96 205.25,-40.027 437.91,-99.871 532.43,-286.39 -9.677,295.96 -67.484,590.34 -170.42,868.08 265.2,-151.32 447.07,-439.7 469.28,-744.21 94.477,329.22 231.53,646.17 406.69,940.44 -60.914,-324.79 -57.909,-661.43 8.8111,-985.1 144.54,180.9 337.22,322.95 552.76,407.55 -253.3,-212.76 -415.3,-599.7 -448.2,-931.24 h -970.54" /><g
         id="g3685"
         inkscape:label="ink_ext_XXXXXX"
         transform="matrix(10,0,0,10,-12838,7926)" /><g
         id="g5343"
         transform="matrix(7.4999998,0,0,-7.4999998,5412.7413,12263.965)">
	<path
   style="fill:#a862aa;stroke:#a862aa;stroke-width:0.5"
   inkscape:connector-curvature="0"
   d="m 140.902,650.187 c 11.78,-9.72 27.58,-14.8 42.81,-12.62 10.21,1.48 19.65,7.59 24.94,16.48 5.2,8.64 6.6,18.88 7.58,28.74 1.55,17.04 0.23,34.31 3.26,51.21 0.63,3.77 0.53,7.6 0.52,11.4 -14.05,9.08 -27.87,18.52 -42,27.48 -6.1,-0.28 -12.2,0.05 -18.3,-0.25 -11.6,-0.52 -23.13,-1.9 -34.67,-3.07 -13.37,-1.61 -27.12,-3.3 -39.32,-9.38 -7.46,-3.66 -14.03,-9.92 -16.31,-18.11 -2.93,-10.57 -0.22,-21.76 3.75,-31.69 4.35,-10.7 13.09,-20.18 24.59,-23.01 11.96,-3.32 24.54,0.26 35.2,5.89 -2.79,-5.07 -5.83,-10.33 -5.82,-16.3 -0.51,-10.63 5.88,-20.22 13.77,-26.77 m 27.31,7.48 c -7.52,2.09 -13.83,8.09 -16.16,15.56 -2.44,7.3 -1,15.71 3.71,21.8 5.19,7.01 14.45,10.57 23.02,9.02 10.22,-1.57 18.67,-10.58 19.59,-20.87 0.92,-7.68 -2.21,-15.64 -8.11,-20.64 -5.91,-5.21 -14.5,-7.02 -22.05,-4.87 m -64.05,47.91 c -6.49,2.03 -11.96,7.02 -14.61,13.28 -3,6.94 -2.45,15.31 1.52,21.77 4.22,7.1 12.4,11.73 20.7,11.38 11.26,0.24 21.68,-8.88 23.18,-20 1.56,-9.07 -2.75,-18.75 -10.5,-23.69 -5.92,-3.86 -13.56,-4.92 -20.29,-2.74 z"
   id="path5329" />
	<path
   style="fill:#fffefe;stroke:#fffefe;stroke-width:0.5"
   inkscape:connector-curvature="0"
   d="m 168.212,657.667 c 7.55,-2.15 16.14,-0.34 22.05,4.87 5.9,5 9.03,12.96 8.11,20.64 -0.92,10.29 -9.37,19.3 -19.59,20.87 -8.57,1.55 -17.83,-2.01 -23.02,-9.02 -4.71,-6.09 -6.15,-14.5 -3.71,-21.8 2.33,-7.47 8.64,-13.47 16.16,-15.56 m 2.08,7.21 c -7.02,1.9 -12.2,8.89 -11.91,16.17 0.13,8.12 7.16,15.63 15.39,15.75 7.08,0.64 14.08,-4.15 16.35,-10.82 2.82,-7.23 -0.76,-16.11 -7.57,-19.69 -3.67,-2.18 -8.19,-2.29 -12.26,-1.41 z"
   id="path5331" />
	<path
   style="fill:#f44f22;stroke:#f44f22;stroke-width:0.5"
   inkscape:connector-curvature="0"
   d="m 170.292,664.877 c 4.07,-0.88 8.59,-0.77 12.26,1.41 6.81,3.58 10.39,12.46 7.57,19.69 -2.27,6.67 -9.27,11.46 -16.35,10.82 -8.23,-0.12 -15.26,-7.63 -15.39,-15.75 -0.29,-7.28 4.89,-14.27 11.91,-16.17 z"
   id="path5333" />
	<path
   style="fill:#fffefd;stroke:#fffefd;stroke-width:0.5"
   inkscape:connector-curvature="0"
   d="m 104.162,705.577 c 6.73,-2.18 14.37,-1.12 20.29,2.74 7.75,4.94 12.06,14.62 10.5,23.69 -1.5,11.12 -11.92,20.24 -23.18,20 -8.3,0.35 -16.48,-4.28 -20.7,-11.38 -3.97,-6.46 -4.52,-14.83 -1.52,-21.77 2.65,-6.26 8.12,-11.25 14.61,-13.28 m -5.48,12.71 c -3.12,3.39 -3.94,8.41 -3.3,12.86 1.11,6.95 7.28,12.63 14.26,13.36 6.19,0.72 12.7,-2.47 15.8,-7.9 4.22,-6.89 2.34,-16.98 -4.47,-21.51 -6.53,-5.54 -17.57,-3.91 -22.29,3.19 z"
   id="path5335" />
	<path
   style="fill:#f9c811;stroke:#f9c811;stroke-width:0.5"
   inkscape:connector-curvature="0"
   d="m 275.562,708.847 c 2.83,-2.06 6.41,-3.06 9.87,-2.2 2.8,1.92 4.34,6.88 0.75,8.85 -40.85,29.09 -81.72,58.19 -122.58,87.28 -4.1,2.63 -8.81,5.34 -13.87,4.57 -4.72,-0.78 -7.25,-7.03 -4.61,-10.94 1.43,-2.52 3.83,-4.24 6.17,-5.84 8.86,-5.96 17.9,-11.66 26.72,-17.69 14.13,-8.96 27.95,-18.4 42,-27.48 18.5,-12.2 37.06,-24.33 55.55,-36.55 z"
   id="path5337" />
	<path
   style="fill:#d47056;stroke:#d47056;stroke-width:0.5"
   inkscape:connector-curvature="0"
   d="m 98.682,718.287 c 4.72,-7.1 15.76,-8.73 22.29,-3.19 -4.59,-1.32 -9.45,-2.25 -14.21,-1.32 -2.97,0.92 -5.45,2.91 -8.08,4.51 z"
   id="path5339" />
	<path
   style="fill:#f44f22;stroke:#f44f22;stroke-width:0.5"
   inkscape:connector-curvature="0"
   d="m 98.682,718.287 c 2.63,-1.6 5.11,-3.59 8.08,-4.51 4.76,-0.93 9.62,0 14.21,1.32 6.81,4.53 8.69,14.62 4.47,21.51 -3.1,5.43 -9.61,8.62 -15.8,7.9 -6.98,-0.73 -13.15,-6.41 -14.26,-13.36 -0.64,-4.45 0.18,-9.47 3.3,-12.86 z"
   id="path5341" />
</g><g
         id="g5407"
         transform="matrix(7.4999998,0,0,-7.4999998,-4493.7051,14126.079)">
	<path
   style="fill:#294772;stroke:#294772;stroke-width:0.5"
   inkscape:connector-curvature="0"
   d="m 1080.802,635.007 c 1.26,-4.97 7.28,-7.84 11.95,-5.67 3.69,1.35 5.27,5.32 5.62,8.96 9.72,5.77 16.75,15.77 19.14,26.79 -1.67,0.05 -3.32,0.12 -4.95,0.21 -2.5,-9.02 -8.05,-17.5 -16.24,-22.28 -2.08,1.84 -4.61,3.5 -7.52,3.23 -5.46,-0.12 -9.69,-6.05 -8,-11.24 z"
   id="path5345" />
	<path
   style="fill:#294772;stroke:#294772;stroke-width:0.5"
   inkscape:connector-curvature="0"
   d="m 1050.492,643.827 c 1.96,-5.1 8.96,-7.02 13.27,-3.67 3.16,2.09 3.97,6.11 3.49,9.65 7.94,5.73 13.96,14.07 16.57,23.54 -1.56,1.31 -3.21,2.5 -5.13,3.22 0.16,-0.26 0.48,-0.76 0.64,-1.01 0.78,-0.02 3.55,-1.22 1.53,-1.8 -0.45,0.25 -1.35,0.75 -1.8,1 -2.37,-8.24 -7.49,-15.58 -14.4,-20.64 -2.5,1.23 -5.28,2.64 -8.12,1.74 -5.2,-1.01 -8.29,-7.25 -6.05,-12.03 z"
   id="path5347" />
	<path
   style="fill:#fbcd05;stroke:#fbcd05;stroke-width:0.5"
   inkscape:connector-curvature="0"
   d="m 1112.563,665.297 c 1.63,-0.09 3.28,-0.16 4.95,-0.21 17.15,0.39 34.08,7.85 45.79,20.42 11.9,12.25 18.66,29.41 18.14,46.5 0.13,16.36 -6.89,32.22 -17.73,44.29 -0.85,0.64 -1.7,1.28 -2.53,1.93 -1.65,-0.11 -2.39,0.64 -2.23,2.26 -3.84,3.42 -8.06,6.43 -12.66,8.72 -5.27,0.58 -9.84,3.57 -15.04,4.47 -8.37,1.64 -17.09,3.3 -25.57,1.49 -3.02,-0.61 -6.08,-1.02 -9.13,-1.39 -27.17,-7.34 -47.89,-34.86 -46.43,-63.14 4.53,3.07 11.24,3.03 15.26,-0.91 4.63,-3.95 4.21,-12.36 -0.86,-15.76 -3.2,-2.57 -7.51,-2.82 -11.38,-2.06 0.75,-6.49 4.39,-12.27 7.81,-17.71 4.73,-6.89 10.7,-13.09 17.74,-17.63 1.92,-0.72 3.57,-1.91 5.13,-3.22 8.649,-5.02 18.719,-7.89 28.74,-8.05 m 3.479,53.78 c -1.88,5.03 1.33,10.62 6,12.73 2.69,1.47 5.87,0.81 8.8,0.71 3.98,-1.96 7.91,-5.51 7.45,-10.37 0.36,-5.19 -4.07,-8.83 -8.45,-10.53 -5.56,-0.89 -11.98,1.85 -13.8,7.46 m -35.41,25.94 c 2.99,6.7 10.89,10.99 18.12,9.25 4.74,-1.26 9.16,-4.43 11.18,-8.99 -1.04,-0.62 -2.07,-1.23 -3.08,-1.83 -2.54,3.76 -6.38,7.22 -11.18,7.27 -4.42,0.26 -8.19,-2.61 -10.85,-5.85 -1.08,-1.36 -2.9,-0.06 -4.19,0.15 z"
   id="path5349" />
	<path
   style="fill:#637b25;stroke:#637b25;stroke-width:0.5"
   inkscape:connector-curvature="0"
   d="m 1079.063,674.757 c 0.45,-0.25 1.35,-0.75 1.8,-1 2.02,0.58 -0.75,1.78 -1.53,1.8 z"
   id="path5351" />
	<path
   style="fill:#a659a9;stroke:#a659a9;stroke-width:0.5"
   inkscape:connector-curvature="0"
   d="m 1218.492,705.677 c 5.69,-2.07 12.1,-3.16 18,-1.27 5.47,1.89 8.58,7.39 10.05,12.67 3.56,12.89 0.22,26.89 -6.99,37.92 -5.62,1.44 -10.97,3.83 -15.86,6.94 -11.56,7.15 -22.82,15.01 -32.34,24.77 -0.32,-0.17 -0.97,-0.51 -1.29,-0.69 -2.22,-1.49 -4.44,-3.08 -7.06,-3.74 0.33,-14.7 2.44,-29.37 6.32,-43.55 3.52,-14.92 14.76,-27.77 29.17,-33.05 z"
   id="path5353" />
	<path
   style="fill:#094c76;stroke:#094c76;stroke-width:0.5"
   inkscape:connector-curvature="0"
   d="m 1053.142,711.907 c 3.87,-0.76 8.18,-0.51 11.38,2.06 5.07,3.4 5.49,11.81 0.86,15.76 -4.02,3.94 -10.73,3.98 -15.26,0.91 -2.79,-2.35 -4.66,-5.97 -4.08,-9.68 0.281,-4.17 3.71,-7.11 7.1,-9.05 z"
   id="path5355" />
	<path
   style="fill:#094b76;stroke:#094b76;stroke-width:0.5"
   inkscape:connector-curvature="0"
   d="m 1116.042,719.077 c 1.82,-5.61 8.24,-8.35 13.8,-7.46 4.38,1.7 8.81,5.34 8.45,10.53 0.46,4.86 -3.47,8.41 -7.45,10.37 -2.93,0.1 -6.11,0.76 -8.8,-0.71 -4.67,-2.11 -7.88,-7.7 -6,-12.73 z"
   id="path5357" />
	<path
   style="fill:#30475d;stroke:#30475d;stroke-width:0.5"
   inkscape:connector-curvature="0"
   d="m 1080.632,745.017 c 1.29,-0.21 3.11,-1.51 4.19,-0.15 2.66,3.24 6.43,6.11 10.85,5.85 4.8,-0.05 8.64,-3.51 11.18,-7.27 1.01,0.6 2.04,1.21 3.08,1.83 -2.02,4.56 -6.44,7.73 -11.18,8.99 -7.23,1.74 -15.13,-2.55 -18.12,-9.25 z"
   id="path5359" />
	<path
   style="fill:#ca83bb;stroke:#ca83bb;stroke-width:0.5"
   inkscape:connector-curvature="0"
   d="m 1239.552,754.997 c 11.26,-2.81 23.63,-1.24 33.76,4.46 4.72,2.73 9.26,6.56 11.05,11.88 1.71,5.75 -0.73,11.74 -3.8,16.57 -8.49,12.62 -23.62,20.25 -38.76,20.31 -12.09,-0.15 -24.02,-2.45 -35.76,-5.19 -1.05,-1.53 -2.14,-3.04 -3.15,-4.57 -0.21,-0.32 -0.64,-0.98 -0.85,-1.3 -2.59,-4.34 -6.43,-7.82 -10.69,-10.45 9.52,-9.76 20.78,-17.62 32.34,-24.77 4.89,-3.11 10.24,-5.5 15.86,-6.94 z"
   id="path5361" />
	<path
   style="fill:#094c76;stroke:#094c76;stroke-width:0.5"
   inkscape:connector-curvature="0"
   d="m 1161.182,778.227 c 0.83,-0.65 1.68,-1.29 2.53,-1.93 6.05,0.9 11.92,2.81 17.44,5.42 -1.79,1.26 -3.54,2.56 -5.35,3.79 -0.38,0.16 -1.15,0.49 -1.53,0.66 -4.94,0.3 -9.13,3.04 -13.55,4.92 -2.3,0.94 -4.35,2.32 -6.22,3.92 l -0.1,0.04 c -2.78,0.17 -5.67,0.84 -7.14,3.47 -8.64,3.83 -17.12,8.01 -25.86,11.58 1.34,-4.63 2.55,-9.42 5.23,-13.49 0.13,-0.22 0.4,-0.64 0.54,-0.85 6.7,-1 13.21,-3.23 19.12,-6.55 4.6,-2.29 8.82,-5.3 12.66,-8.72 1.16,-0.34 1.9,-1.09 2.23,-2.26 z"
   id="path5363" />
	<path
   style="fill:#dccd3b;stroke:#dccd3b;stroke-width:0.5"
   inkscape:connector-curvature="0"
   d="m 1158.952,780.487 c -0.16,-1.62 0.58,-2.37 2.23,-2.26 -0.33,1.17 -1.07,1.92 -2.23,2.26 z"
   id="path5365" />
	<path
   style="fill:#637b25;stroke:#637b25;stroke-width:0.5"
   inkscape:connector-curvature="0"
   d="m 1175.802,785.507 c 1.81,-1.23 3.56,-2.53 5.35,-3.79 0.47,0.14 1.39,0.42 1.85,0.56 2.62,0.66 4.84,2.25 7.06,3.74 l -1.64,-0.31 -0.07,-0.02 c -1.74,-1.07 -3.29,-3.08 -5.49,-2.9 -2.43,0.72 -4.72,1.79 -7.06,2.72 z"
   id="path5367" />
	<path
   style="fill:#d4c642;stroke:#d4c642;stroke-width:0.5"
   inkscape:connector-curvature="0"
   d="m 1175.802,785.507 c 2.34,-0.93 4.63,-2 7.06,-2.72 2.2,-0.18 3.75,1.83 5.49,2.9 -1.96,-0.39 -3.88,-0.86 -5.78,-1.39 -15.96,6.51 -31.41,14.21 -47.19,21.16 -4.38,1.9 -8.71,3.9 -12.94,6.1 -2.2,6.57 -3.81,14.09 -0.31,20.53 19.51,-8.66 38.87,-17.66 58.33,-26.46 4.16,-1.83 8.15,-4.31 12.78,-4.78 -23.75,11.5 -47.99,22.02 -71.97,33.04 -1.56,-2.67 -1.13,-5.83 -1.24,-8.76 0.09,-5.03 -0.38,-10.21 1.37,-15.03 8.74,-3.57 17.22,-7.75 25.86,-11.58 2.47,-0.96 4.86,-2.12 7.14,-3.47 l 0.1,-0.04 c 6.81,-2.4 13.3,-5.64 19.77,-8.84 0.38,-0.17 1.15,-0.5 1.53,-0.66 z"
   id="path5369" />
	<path
   style="fill:#fad105;stroke:#fad105;stroke-width:0.5"
   inkscape:connector-curvature="0"
   d="m 1135.382,805.457 c 15.78,-6.95 31.23,-14.65 47.19,-21.16 1.9,0.53 3.82,1 5.78,1.39 l 0.07,0.02 c 2.98,3.89 7.41,6.22 10.85,9.65 -1.12,2.17 -3.22,3.52 -5,5.1 -0.26,0.1 -0.77,0.29 -1.03,0.39 -4.63,0.47 -8.62,2.95 -12.78,4.78 -19.46,8.8 -38.82,17.8 -58.33,26.46 -3.5,-6.44 -1.89,-13.96 0.31,-20.53 4.23,-2.2 8.56,-4.2 12.94,-6.1 z"
   id="path5371" />
	<path
   style="fill:#375a3d;stroke:#375a3d;stroke-width:0.5"
   inkscape:connector-curvature="0"
   d="m 1160.722,791.087 c 4.42,-1.88 8.61,-4.62 13.55,-4.92 -6.47,3.2 -12.96,6.44 -19.77,8.84 1.87,-1.6 3.92,-2.98 6.22,-3.92 z"
   id="path5373" />
	<path
   style="fill:#daa168;stroke:#daa168;stroke-width:0.5"
   inkscape:connector-curvature="0"
   d="m 1188.422,785.707 1.64,0.31 c 0.32,0.18 0.97,0.52 1.29,0.69 4.26,2.63 8.1,6.11 10.69,10.45 l -0.55,0.22 c -0.76,-0.68 -1.5,-1.36 -2.22,-2.02 -3.44,-3.43 -7.87,-5.76 -10.85,-9.65 z"
   id="path5375" />
	<path
   style="fill:#e7d353;stroke:#e7d353;stroke-width:0.5"
   inkscape:connector-curvature="0"
   d="m 1131.252,793.677 c 5.2,-0.9 9.77,-3.89 15.04,-4.47 -5.91,3.32 -12.42,5.55 -19.12,6.55 -0.14,0.21 -0.41,0.63 -0.54,0.85 -6.29,0.43 -12.6,1.17 -18.87,0.1 -3.78,-0.64 -7.98,-0.72 -11.21,-2.93 3.05,0.37 6.11,0.78 9.13,1.39 8.48,1.81 17.2,0.15 25.57,-1.49 z"
   id="path5377" />
	<path
   style="fill:#345836;stroke:#345836;stroke-width:0.5"
   inkscape:connector-curvature="0"
   d="m 1147.262,798.517 c 1.47,-2.63 4.36,-3.3 7.14,-3.47 -2.28,1.35 -4.67,2.51 -7.14,3.47 z"
   id="path5379" />
	<path
   style="fill:#dac744;stroke:#dac744;stroke-width:0.5"
   inkscape:connector-curvature="0"
   d="m 1199.272,795.357 c 0.72,0.66 1.46,1.34 2.22,2.02 -2.4,1.05 -4.77,2.15 -7.22,3.08 1.78,-1.58 3.88,-2.93 5,-5.1 z"
   id="path5381" />
	<path
   style="fill:#3c5d41;stroke:#3c5d41;stroke-width:0.5"
   inkscape:connector-curvature="0"
   d="m 1201.492,797.377 0.55,-0.22 c 0.21,0.32 0.64,0.98 0.85,1.3 -16.94,6.96 -33.36,15.13 -50.11,22.52 -10.52,4.96 -21.27,9.44 -31.7,14.57 0.02,-0.58 0.08,-1.13 0.19,-1.66 23.98,-11.02 48.22,-21.54 71.97,-33.04 0.26,-0.1 0.77,-0.29 1.03,-0.39 2.45,-0.93 4.82,-2.03 7.22,-3.08 z"
   id="path5383" />
	<path
   style="fill:#094c76;stroke:#094c76;stroke-width:0.5"
   inkscape:connector-curvature="0"
   d="m 1152.782,820.977 c 16.75,-7.39 33.17,-15.56 50.11,-22.52 1.01,1.53 2.1,3.04 3.15,4.57 2.27,3.28 3.96,6.91 5.51,10.58 -4.15,2.07 -8.41,3.89 -12.62,5.83 -23.84,10.38 -47.39,21.44 -71.12,32.07 -2.97,-5 -5.01,-10.44 -6.73,-15.96 10.43,-5.13 21.18,-9.61 31.7,-14.57 z"
   id="path5385" />
	<path
   style="fill:#fad105;stroke:#fad105;stroke-width:0.5"
   inkscape:connector-curvature="0"
   d="m 1211.552,813.607 0.15,-0.08 c 0.59,3.12 2.13,6.08 2.21,9.28 -0.64,3.64 0.14,7.26 0.42,10.9 -1.63,1.84 -3.99,2.75 -6.16,3.75 -6.77,2.84 -13.37,6.06 -20.09,9 -2.31,1.09 -4.99,1.88 -6.41,4.18 -0.3,0.14 -0.91,0.43 -1.21,0.57 -1.88,-0.03 -3.74,0.26 -5.41,1.1 -8.27,3.81 -16.55,7.59 -24.87,11.26 -1.55,0.59 -2.7,1.8 -3.79,2.99 -1.12,0.62 -2.24,1.24 -3.34,1.87 -4.8,-4.79 -9.85,-9.38 -13.87,-14.88 3.15,-2.85 7.13,-4.41 10.97,-6.09 18.56,-8.45 37.19,-16.76 55.72,-25.28 1.36,-0.48 2.23,-1.62 3.06,-2.74 4.21,-1.94 8.47,-3.76 12.62,-5.83 z"
   id="path5387" />
	<path
   style="fill:#cec43f;stroke:#cec43f;stroke-width:0.5"
   inkscape:connector-curvature="0"
   d="m 1127.813,851.507 c 23.73,-10.63 47.28,-21.69 71.12,-32.07 -0.83,1.12 -1.7,2.26 -3.06,2.74 -18.53,8.52 -37.16,16.83 -55.72,25.28 -3.84,1.68 -7.82,3.24 -10.97,6.09 -0.481,-0.69 -0.941,-1.38 -1.37,-2.04 z"
   id="path5389" />
	<path
   style="fill:#d9cd51;stroke:#d9cd51;stroke-width:0.5"
   inkscape:connector-curvature="0"
   d="m 1213.912,822.807 c 2.11,3.92 1.2,8.57 1.54,12.85 -11.38,4.74 -22.38,10.33 -33.78,14.98 1.42,-2.3 4.1,-3.09 6.41,-4.18 6.72,-2.94 13.32,-6.16 20.09,-9 2.17,-1 4.53,-1.91 6.16,-3.75 -0.28,-3.64 -1.06,-7.26 -0.42,-10.9 z"
   id="path5391" />
	<path
   style="fill:#094c76;stroke:#094c76;stroke-width:0.5"
   inkscape:connector-curvature="0"
   d="m 1181.672,850.637 c 11.4,-4.65 22.4,-10.24 33.78,-14.98 0.09,7.37 0.07,14.74 -0.37,22.11 -0.17,-0.37 -0.49,-1.09 -0.65,-1.45 -19.13,8.31 -38.68,15.63 -57.87,23.78 -4.52,-3.88 -9.15,-7.61 -13.51,-11.67 1.1,-0.63 2.22,-1.25 3.34,-1.87 11.55,-4.64 22.86,-9.92 34.07,-15.35 0.3,-0.14 0.91,-0.43 1.21,-0.57 z"
   id="path5393" />
	<path
   style="fill:#ccc33f;stroke:#ccc33f;stroke-width:0.5"
   inkscape:connector-curvature="0"
   d="m 1175.052,852.307 c 1.67,-0.84 3.53,-1.13 5.41,-1.1 -11.21,5.43 -22.52,10.71 -34.07,15.35 1.09,-1.19 2.24,-2.4 3.79,-2.99 8.32,-3.67 16.6,-7.45 24.87,-11.26 z"
   id="path5395" />
	<path
   style="fill:#355a40;stroke:#355a40;stroke-width:0.5"
   inkscape:connector-curvature="0"
   d="m 1156.563,880.097 c 19.19,-8.15 38.74,-15.47 57.87,-23.78 0.16,0.36 0.48,1.08 0.65,1.45 -15.45,6.18 -30.96,12.21 -46.2,18.88 -3.43,1.21 -6.72,2.77 -10.12,4.05 -0.551,-0.15 -1.651,-0.45 -2.2,-0.6 z"
   id="path5397" />
	<path
   style="fill:#ccc346;stroke:#ccc346;stroke-width:0.5"
   inkscape:connector-curvature="0"
   d="m 1168.882,876.647 c 15.24,-6.67 30.75,-12.7 46.2,-18.88 0.12,3.46 -0.5,6.89 -1.18,10.29 -0.11,-2.71 -0.32,-5.4 -0.46,-8.09 -9.69,3.24 -19,7.51 -28.51,11.22 -5.31,1.93 -10.29,5.11 -16.05,5.46 z"
   id="path5399" />
	<path
   style="fill:#fad105;stroke:#fad105;stroke-width:0.5"
   inkscape:connector-curvature="0"
   d="m 1184.932,871.187 c 9.51,-3.71 18.82,-7.98 28.51,-11.22 0.14,2.69 0.35,5.38 0.46,8.09 -0.28,4.76 -1.36,9.42 -2.06,14.14 -1.89,0.66 -3.77,1.35 -5.63,2.04 -6.01,0.34 -11.16,3.69 -16.7,5.62 -3.04,1.41 -6.9,1.81 -8.86,4.85 -0.5,0.21 -1.49,0.62 -1.99,0.83 -5,-3.01 -9.74,-6.43 -14.51,-9.78 -1.99,-1.46 -4.28,-2.77 -5.39,-5.06 3.4,-1.28 6.69,-2.84 10.12,-4.05 5.76,-0.35 10.74,-3.53 16.05,-5.46 z"
   id="path5401" />
	<path
   style="fill:#0a4b76;stroke:#0a4b76;stroke-width:0.5"
   inkscape:connector-curvature="0"
   d="m 1206.212,884.237 c 1.86,-0.69 3.74,-1.38 5.63,-2.04 -1.78,9.31 -3.98,18.56 -6.92,27.59 -9.11,-4.07 -17.81,-8.97 -26.26,-14.25 0.5,-0.21 1.49,-0.62 1.99,-0.83 8.6,-3.27 17.21,-6.58 25.56,-10.47 z"
   id="path5403" />
	<path
   style="fill:#c6bf40;stroke:#c6bf40;stroke-width:0.5"
   inkscape:connector-curvature="0"
   d="m 1189.512,889.857 c 5.54,-1.93 10.69,-5.28 16.7,-5.62 -8.35,3.89 -16.96,7.2 -25.56,10.47 1.96,-3.04 5.82,-3.44 8.86,-4.85 z"
   id="path5405" />
</g><path
         style="fill:#bd535b;stroke:#fac811;stroke-width:3.75;fill-opacity:1"
         inkscape:connector-curvature="0"
         d="m 3133.1364,10471.191 c 12.675,34.425 47.325,59.625 84.6,56.775 64.2,-3.45 114.375,-51.6 153.45,-98.325 28.65,38.1 65.625,71.175 110.1,89.475 30.45,12 68.325,13.875 95.85,-6.45 30.9,-23.4 41.7,-63.75 44.1,-100.725 2.325,-85.425 -32.475,-168.15 -82.95,-235.725 -33.975,-42.225 -76.2,-82.35 -130.125,-96.225 -41.85,-6.45 -86.775,-3.45 -123.075,20.175 -68.85,44.325 -117.225,115.425 -144.9,191.55 -19.875,57.075 -29.4675,121.8 -7.05,179.475 z"
         id="path5409" /><path
         style="fill:#bd535b;stroke:#fac811;stroke-width:3.75;fill-opacity:1"
         inkscape:connector-curvature="0"
         d="m 3991.9232,10029.912 c 7.05,43.5 47.6999,81 93.1499,75.825 59.25,-4.575 106.575,-47.325 143.625,-90.45 3.3,0 9.975,-0.08 13.275,-0.08 31.2,35.925 67.575,70.5 113.925,85.2 32.925,10.725 73.35,7.275 97.275,-20.325 31.8,-36.45 36.15,-88.8001 31.725,-135.1501 -13.05,-73.725 -42.525,-145.425 -91.425,-202.8 -32.625,-36.825 -71.175,-71.85 -120.15,-84.075 -38.475,-5.55 -80.175,-5.25 -114.45,15.3 -77.175,43.5 -127.125,122.1 -157.4999,203.25 -11.625,50.025 -26.475,102.675 -9.45,153.3001 z"
         id="path5411" /><g
         id="g5633"
         transform="matrix(7.4999998,0,0,-7.4999998,-10937.29,14683.132)">
	<path
   style="fill:#9b2c92;stroke:#9b2c92;stroke-width:0.5"
   inkscape:connector-curvature="0"
   d="m 1745.492,1449.997 c 1.08,-4.61 8.18,-5.2 10.1,-0.92 1.77,3.09 -0.41,6.49 -3.19,8.01 0.03,6.81 -0.19,13.61 -0.15,20.42 13.4,0.76 25.67,10.11 29.76,22.93 -24.09,-0.24 -47.47,12.16 -61.63,31.5 -8.59,-11.24 -8.22,-27.62 -0.27,-39.1 -5.63,-4.22 -11.47,-8.16 -17.24,-12.19 -2.65,1.7 -6.69,1.97 -8.57,-0.98 -2.86,-3.73 0.92,-9.6 5.51,-8.46 3.54,0.46 4.79,4.24 4.42,7.36 5.84,4.05 11.63,8.17 17.49,12.2 6.88,-8.27 17.39,-13.37 28.18,-13.33 -0.21,-6.74 0.24,-13.46 -0.01,-20.19 -2.97,-1.02 -5.51,-4 -4.4,-7.25 z"
   id="path5603" />
	<path
   style="fill:#992d91;stroke:#992d91;stroke-width:0.5"
   inkscape:connector-curvature="0"
   d="m 1839.892,1498.537 c 1.9,0.95 3.78,1.97 5.63,3.08 -3.65,6.23 -6.96,12.65 -10.63,18.86 -1.59,-1.42 -3.21,-2.78 -4.87,-4.05 3.27,-5.98 6.64,-11.89 9.87,-17.89 z"
   id="path5605" />
	<path
   style="fill:#ee5476;stroke:#ee5476;stroke-width:0.5"
   inkscape:connector-curvature="0"
   d="m 1782.012,1500.437 c 17.22,-0.36 34.26,5.75 48.01,15.99 1.66,1.27 3.28,2.63 4.87,4.05 5.98,5.58 11.36,11.88 15.43,19 1.07,1.79 1.83,3.88 3.6,5.18 0.27,2.04 0.81,4.05 1.75,5.93 4.75,11.06 6.39,23.34 5.65,35.32 -0.18,2.1 -0.46,4.19 -0.73,6.3 -2.37,15.43 -9.39,30.18 -20.14,41.53 -11.22,12.01 -26.44,20.19 -42.62,22.99 -15.18,2.56 -31.05,0.54 -45.11,-5.71 -2.22,-1.09 -4.33,-2.35 -6.46,-3.54 -11.64,-6.09 -21.29,-15.71 -28.24,-26.78 -1.12,-1.79 -2.28,-3.53 -3.42,-5.26 -4.11,-9.39 -7.82,-19.13 -8.56,-29.45 -0.19,-2.01 -0.36,-4 -0.51,-5.97 -0.41,-0.08 -1.25,-0.26 -1.66,-0.35 0.38,-0.14 1.16,-0.43 1.55,-0.57 0.12,-16.76 5.12,-33.52 14.96,-47.16 14.16,-19.34 37.54,-31.74 61.63,-31.5 m 2.15,10.09 c -4.17,1.09 -7.87,5.1 -7.95,9.51 -0.85,5.71 4.43,10.92 9.87,11.56 6.79,1.01 13.3,-5.82 11.79,-12.57 -1.03,-6.22 -7.679,-10.28 -13.71,-8.5 m -30.18,4.96 c -1.87,0.58 -0.13,2.92 0.27,4.07 18.47,35.85 36.86,71.75 55.41,107.56 0.51,0.74 1.96,3.56 2.77,1.59 -0.13,-2.42 -1.86,-4.36 -2.84,-6.46 -17.82,-34.81 -35.78,-69.55 -53.67,-104.32 -0.69,-0.68 -0.859,-2.74 -1.94,-2.44 m 67.99,17.9 c -5.53,1.24 -9.97,5.7 -11.74,11 -2.09,6.94 0.86,15.26 7.22,18.94 6.07,3.78 14.3,2.6 19.82,-1.68 3.69,-3.78 5.67,-9.26 4.9,-14.53 -0.77,-9.44 -11.109,-16.52 -20.2,-13.73 m -88.79,3.23 c -7.56,1.79 -9.77,13.05 -4.05,18.01 5.2,5.55 15.35,2.78 17.96,-4.04 0.9,-3.69 0.6,-7.95 -2.14,-10.81 -2.79,-3.49 -7.66,-4.15 -11.77,-3.16 m -1.06,42.84 c -3.04,0.97 -6.05,2.5 -7.75,5.31 -6.51,7.78 -3.51,21.79 6.36,25.25 9.81,4.77 22.79,-2.91 22.8,-13.94 1.531,-11.15 -11.01,-20.73 -21.41,-16.62 m 91.9,8.8 c -4.72,1.64 -8.44,5.76 -9.14,10.77 -1.72,7.9 4.79,16.31 12.95,16.4 7.89,0.86 15.58,-6.41 14.74,-14.4 0.501,-9.14 -10.24,-16.18 -18.55,-12.77 m -50.91,26.12 c -5.44,2.02 -9.39,7.72 -8.89,13.59 -0.05,7.84 7.71,14.53 15.49,13.42 7.45,-0.48 13.46,-7.9 12.45,-15.29 -0.4,-8.96 -10.86,-15.26 -19.05,-11.72 z"
   id="path5607" />
	<path
   style="fill:#9a2c91;stroke:#9a2c91;stroke-width:0.5"
   inkscape:connector-curvature="0"
   d="m 1784.162,1510.527 c 6.03,-1.78 12.68,2.28 13.71,8.5 1.51,6.75 -5,13.58 -11.79,12.57 -5.44,-0.64 -10.72,-5.85 -9.87,-11.56 0.08,-4.41 3.78,-8.42 7.95,-9.51 z"
   id="path5609" />
	<path
   style="fill:#b93578;stroke:#b93578;stroke-width:0.5"
   inkscape:connector-curvature="0"
   d="m 1753.982,1515.487 c 1.08,-0.3 1.25,1.76 1.94,2.44 17.89,34.77 35.85,69.51 53.67,104.32 0.98,2.1 2.71,4.04 2.84,6.46 -0.81,1.97 -2.26,-0.85 -2.77,-1.59 -18.55,-35.81 -36.94,-71.71 -55.41,-107.56 -0.4,-1.15 -2.14,-3.49 -0.27,-4.07 z"
   id="path5611" />
	<path
   style="fill:#9b2c92;stroke:#9b2c92;stroke-width:0.5"
   inkscape:connector-curvature="0"
   d="m 1821.972,1533.387 c 9.09,-2.79 19.43,4.29 20.2,13.73 0.77,5.27 -1.21,10.75 -4.9,14.53 -5.52,4.28 -13.75,5.46 -19.82,1.68 -6.36,-3.68 -9.31,-12 -7.22,-18.94 1.77,-5.3 6.211,-9.76 11.74,-11 z"
   id="path5613" />
	<path
   style="fill:#9b2c91;stroke:#9b2c91;stroke-width:0.5"
   inkscape:connector-curvature="0"
   d="m 1733.182,1536.617 c 4.11,-0.99 8.98,-0.33 11.77,3.16 2.74,2.86 3.04,7.12 2.14,10.81 -2.61,6.82 -12.76,9.59 -17.96,4.04 -5.72,-4.96 -3.51,-16.22 4.05,-18.01 z"
   id="path5615" />
	<path
   style="fill:#992d90;stroke:#992d90;stroke-width:0.5"
   inkscape:connector-curvature="0"
   d="m 1853.922,1544.657 c 7.16,-2.59 14.45,-4.82 21.74,-7.02 0.59,1.94 1.2,3.86 1.86,5.81 -7.23,2.55 -14.6,4.67 -21.85,7.14 -0.94,-1.88 -1.479,-3.89 -1.75,-5.93 z"
   id="path5617" />
	<path
   style="fill:#992e90;stroke:#992e90;stroke-width:0.5"
   inkscape:connector-curvature="0"
   d="m 1685.193,1577.357 c 6.22,0.74 12.51,1.12 18.68,2.31 0.41,0.09 1.25,0.27 1.66,0.35 0.15,1.97 0.32,3.96 0.51,5.97 -6.99,-0.79 -14,-1.44 -20.95,-2.46 -1.131,-1.55 0.159,-4.22 0.1,-6.17 z"
   id="path5619" />
	<path
   style="fill:#9b2c92;stroke:#9b2c92;stroke-width:0.5"
   inkscape:connector-curvature="0"
   d="m 1732.122,1579.457 c 10.4,-4.11 22.94,5.47 21.41,16.62 -0.01,11.03 -12.99,18.71 -22.8,13.94 -9.87,-3.46 -12.87,-17.47 -6.36,-25.25 1.701,-2.81 4.71,-4.34 7.75,-5.31 z"
   id="path5621" />
	<path
   style="fill:#982e8f;stroke:#982e8f;stroke-width:0.5"
   inkscape:connector-curvature="0"
   d="m 1860.592,1592.207 c 0.27,-2.11 0.55,-4.2 0.73,-6.3 9.11,2.54 18.16,5.28 27.3,7.76 -0.54,2.01 -1.08,4.02 -1.58,6.05 -8.87,-2.34 -17.65,-4.99 -26.45,-7.51 z"
   id="path5623" />
	<path
   style="fill:#9b2c91;stroke:#9b2c91;stroke-width:0.5"
   inkscape:connector-curvature="0"
   d="m 1824.022,1588.257 c 8.31,-3.41 19.05,3.63 18.55,12.77 0.84,7.99 -6.85,15.26 -14.74,14.4 -8.16,-0.09 -14.67,-8.5 -12.95,-16.4 0.7,-5.01 4.42,-9.13 9.14,-10.77 z"
   id="path5625" />
	<path
   style="fill:#9b2c92;stroke:#9b2c92;stroke-width:0.5"
   inkscape:connector-curvature="0"
   d="m 1773.112,1614.377 c 8.19,-3.54 18.65,2.76 19.05,11.72 1.01,7.39 -5,14.81 -12.45,15.29 -7.78,1.11 -15.54,-5.58 -15.49,-13.42 -0.5,-5.87 3.45,-11.57 8.89,-13.59 z"
   id="path5627" />
	<path
   style="fill:#992e91;stroke:#992e91;stroke-width:0.5"
   inkscape:connector-curvature="0"
   d="m 1696.313,1628.987 c 6.09,-4.52 12.1,-9.16 18.29,-13.55 1.14,1.73 2.3,3.47 3.42,5.26 -6.04,4.39 -11.95,8.97 -18.01,13.34 -1.241,-1.7 -2.481,-3.38 -3.7,-5.05 z"
   id="path5629" />
	<path
   style="fill:#992e91;stroke:#992e91;stroke-width:0.5"
   inkscape:connector-curvature="0"
   d="m 1746.262,1647.477 c 2.13,1.19 4.24,2.45 6.46,3.54 -3.06,8.33 -5.86,16.75 -8.96,25.07 -1.97,-0.71 -3.92,-1.44 -5.85,-2.15 2.67,-7.6 5.33,-15.19 8.07,-22.75 0.461,-1.21 0.61,-2.49 0.28,-3.71 z"
   id="path5631" />
</g></g></g><metadata
     id="metadata10386"><rdf:RDF><cc:Work><dc:format>image/svg+xml</dc:format><dc:type
           rdf:resource="http://purl.org/dc/dcmitype/StillImage" /><cc:license
           rdf:resource="http://creativecommons.org/publicdomain/zero/1.0/" /><dc:publisher><cc:Agent
             rdf:about="http://openclipart.org/"><dc:title>Openclipart</dc:title></cc:Agent></dc:publisher><dc:title></dc:title></cc:Work><cc:License
         rdf:about="http://creativecommons.org/publicdomain/zero/1.0/"><cc:permits
           rdf:resource="http://creativecommons.org/ns#Reproduction" /><cc:permits
           rdf:resource="http://creativecommons.org/ns#Distribution" /><cc:permits
           rdf:resource="http://creativecommons.org/ns#DerivativeWorks" /></cc:License></rdf:RDF></metadata></svg>