<?xml version="1.0" encoding="UTF-8" standalone="no"?>
<svg
   xmlns:dc="http://purl.org/dc/elements/1.1/"
   xmlns:cc="http://creativecommons.org/ns#"
   xmlns:rdf="http://www.w3.org/1999/02/22-rdf-syntax-ns#"
   xmlns:svg="http://www.w3.org/2000/svg"
   xmlns="http://www.w3.org/2000/svg"
   xmlns:sodipodi="http://sodipodi.sourceforge.net/DTD/sodipodi-0.dtd"
   xmlns:inkscape="http://www.inkscape.org/namespaces/inkscape"
   width="96mm"
   height="96mm"
   viewBox="0 0 96.000001 96"
   version="1.1"
   id="svg179"
   inkscape:version="1.0.2 (e86c870879, 2021-01-15)"
   sodipodi:docname="quickstart.svg">
  <defs
     id="defs173" />
  <sodipodi:namedview
     id="base"
     pagecolor="#ffffff"
     bordercolor="#666666"
     borderopacity="1.0"
     inkscape:pageopacity="0.0"
     inkscape:pageshadow="2"
     inkscape:zoom="0.33609272"
     inkscape:cx="387.16643"
     inkscape:cy="552.24847"
     inkscape:document-units="mm"
     inkscape:current-layer="layer1"
     inkscape:document-rotation="0"
     showgrid="false"
     fit-margin-top="0.5"
     fit-margin-left="0.5"
     fit-margin-right="0.5"
     fit-margin-bottom="0.5"
     inkscape:window-width="1717"
     inkscape:window-height="944"
     inkscape:window-x="50"
     inkscape:window-y="98"
     inkscape:window-maximized="0" />
  <metadata
     id="metadata176">
    <rdf:RDF>
      <cc:Work
         rdf:about="">
        <dc:format>image/svg+xml</dc:format>
        <dc:type
           rdf:resource="http://purl.org/dc/dcmitype/StillImage" />
        <dc:title></dc:title>
      </cc:Work>
    </rdf:RDF>
  </metadata>
  <g
     inkscape:label="Calque 1"
     inkscape:groupmode="layer"
     id="layer1"
     transform="translate(-3.3955485,-2.0509248)">
    <g
       id="g5407"
       transform="matrix(0.26458334,0,0,0.26458334,-254.99535,-153.56158)">
      <path
         style="fill:#294772;stroke:#294772;stroke-width:0.5"
         inkscape:connector-curvature="0"
         d="m 1080.802,635.007 c 1.26,-4.97 7.28,-7.84 11.95,-5.67 3.69,1.35 5.27,5.32 5.62,8.96 9.72,5.77 16.75,15.77 19.14,26.79 -1.67,0.05 -3.32,0.12 -4.95,0.21 -2.5,-9.02 -8.05,-17.5 -16.24,-22.28 -2.08,1.84 -4.61,3.5 -7.52,3.23 -5.46,-0.12 -9.69,-6.05 -8,-11.24 z"
         id="path5345" />
      <path
         style="fill:#294772;stroke:#294772;stroke-width:0.5"
         inkscape:connector-curvature="0"
         d="m 1050.492,643.827 c 1.96,-5.1 8.96,-7.02 13.27,-3.67 3.16,2.09 3.97,6.11 3.49,9.65 7.94,5.73 13.96,14.07 16.57,23.54 -1.56,1.31 -3.21,2.5 -5.13,3.22 0.16,-0.26 0.48,-0.76 0.64,-1.01 0.78,-0.02 3.55,-1.22 1.53,-1.8 -0.45,0.25 -1.35,0.75 -1.8,1 -2.37,-8.24 -7.49,-15.58 -14.4,-20.64 -2.5,1.23 -5.28,2.64 -8.12,1.74 -5.2,-1.01 -8.29,-7.25 -6.05,-12.03 z"
         id="path5347" />
      <path
         style="fill:#fbcd05;stroke:#fbcd05;stroke-width:0.5"
         inkscape:connector-curvature="0"
         d="m 1112.563,665.297 c 1.63,-0.09 3.28,-0.16 4.95,-0.21 17.15,0.39 34.08,7.85 45.79,20.42 11.9,12.25 18.66,29.41 18.14,46.5 0.13,16.36 -6.89,32.22 -17.73,44.29 -0.85,0.64 -1.7,1.28 -2.53,1.93 -1.65,-0.11 -2.39,0.64 -2.23,2.26 -3.84,3.42 -8.06,6.43 -12.66,8.72 -5.27,0.58 -9.84,3.57 -15.04,4.47 -8.37,1.64 -17.09,3.3 -25.57,1.49 -3.02,-0.61 -6.08,-1.02 -9.13,-1.39 -27.17,-7.34 -47.89,-34.86 -46.43,-63.14 4.53,3.07 11.24,3.03 15.26,-0.91 4.63,-3.95 4.21,-12.36 -0.86,-15.76 -3.2,-2.57 -7.51,-2.82 -11.38,-2.06 0.75,-6.49 4.39,-12.27 7.81,-17.71 4.73,-6.89 10.7,-13.09 17.74,-17.63 1.92,-0.72 3.57,-1.91 5.13,-3.22 8.649,-5.02 18.719,-7.89 28.74,-8.05 m 3.479,53.78 c -1.88,5.03 1.33,10.62 6,12.73 2.69,1.47 5.87,0.81 8.8,0.71 3.98,-1.96 7.91,-5.51 7.45,-10.37 0.36,-5.19 -4.07,-8.83 -8.45,-10.53 -5.56,-0.89 -11.98,1.85 -13.8,7.46 m -35.41,25.94 c 2.99,6.7 10.89,10.99 18.12,9.25 4.74,-1.26 9.16,-4.43 11.18,-8.99 -1.04,-0.62 -2.07,-1.23 -3.08,-1.83 -2.54,3.76 -6.38,7.22 -11.18,7.27 -4.42,0.26 -8.19,-2.61 -10.85,-5.85 -1.08,-1.36 -2.9,-0.06 -4.19,0.15 z"
         id="path5349" />
      <path
         style="fill:#637b25;stroke:#637b25;stroke-width:0.5"
         inkscape:connector-curvature="0"
         d="m 1079.063,674.757 c 0.45,-0.25 1.35,-0.75 1.8,-1 2.02,0.58 -0.75,1.78 -1.53,1.8 z"
         id="path5351" />
      <path
         style="fill:#a659a9;stroke:#a659a9;stroke-width:0.5"
         inkscape:connector-curvature="0"
         d="m 1218.492,705.677 c 5.69,-2.07 12.1,-3.16 18,-1.27 5.47,1.89 8.58,7.39 10.05,12.67 3.56,12.89 0.22,26.89 -6.99,37.92 -5.62,1.44 -10.97,3.83 -15.86,6.94 -11.56,7.15 -22.82,15.01 -32.34,24.77 -0.32,-0.17 -0.97,-0.51 -1.29,-0.69 -2.22,-1.49 -4.44,-3.08 -7.06,-3.74 0.33,-14.7 2.44,-29.37 6.32,-43.55 3.52,-14.92 14.76,-27.77 29.17,-33.05 z"
         id="path5353" />
      <path
         style="fill:#094c76;stroke:#094c76;stroke-width:0.5"
         inkscape:connector-curvature="0"
         d="m 1053.142,711.907 c 3.87,-0.76 8.18,-0.51 11.38,2.06 5.07,3.4 5.49,11.81 0.86,15.76 -4.02,3.94 -10.73,3.98 -15.26,0.91 -2.79,-2.35 -4.66,-5.97 -4.08,-9.68 0.281,-4.17 3.71,-7.11 7.1,-9.05 z"
         id="path5355" />
      <path
         style="fill:#094b76;stroke:#094b76;stroke-width:0.5"
         inkscape:connector-curvature="0"
         d="m 1116.042,719.077 c 1.82,-5.61 8.24,-8.35 13.8,-7.46 4.38,1.7 8.81,5.34 8.45,10.53 0.46,4.86 -3.47,8.41 -7.45,10.37 -2.93,0.1 -6.11,0.76 -8.8,-0.71 -4.67,-2.11 -7.88,-7.7 -6,-12.73 z"
         id="path5357" />
      <path
         style="fill:#30475d;stroke:#30475d;stroke-width:0.5"
         inkscape:connector-curvature="0"
         d="m 1080.632,745.017 c 1.29,-0.21 3.11,-1.51 4.19,-0.15 2.66,3.24 6.43,6.11 10.85,5.85 4.8,-0.05 8.64,-3.51 11.18,-7.27 1.01,0.6 2.04,1.21 3.08,1.83 -2.02,4.56 -6.44,7.73 -11.18,8.99 -7.23,1.74 -15.13,-2.55 -18.12,-9.25 z"
         id="path5359" />
      <path
         style="fill:#ca83bb;stroke:#ca83bb;stroke-width:0.5"
         inkscape:connector-curvature="0"
         d="m 1239.552,754.997 c 11.26,-2.81 23.63,-1.24 33.76,4.46 4.72,2.73 9.26,6.56 11.05,11.88 1.71,5.75 -0.73,11.74 -3.8,16.57 -8.49,12.62 -23.62,20.25 -38.76,20.31 -12.09,-0.15 -24.02,-2.45 -35.76,-5.19 -1.05,-1.53 -2.14,-3.04 -3.15,-4.57 -0.21,-0.32 -0.64,-0.98 -0.85,-1.3 -2.59,-4.34 -6.43,-7.82 -10.69,-10.45 9.52,-9.76 20.78,-17.62 32.34,-24.77 4.89,-3.11 10.24,-5.5 15.86,-6.94 z"
         id="path5361" />
      <path
         style="fill:#094c76;stroke:#094c76;stroke-width:0.5"
         inkscape:connector-curvature="0"
         d="m 1161.182,778.227 c 0.83,-0.65 1.68,-1.29 2.53,-1.93 6.05,0.9 11.92,2.81 17.44,5.42 -1.79,1.26 -3.54,2.56 -5.35,3.79 -0.38,0.16 -1.15,0.49 -1.53,0.66 -4.94,0.3 -9.13,3.04 -13.55,4.92 -2.3,0.94 -4.35,2.32 -6.22,3.92 l -0.1,0.04 c -2.78,0.17 -5.67,0.84 -7.14,3.47 -8.64,3.83 -17.12,8.01 -25.86,11.58 1.34,-4.63 2.55,-9.42 5.23,-13.49 0.13,-0.22 0.4,-0.64 0.54,-0.85 6.7,-1 13.21,-3.23 19.12,-6.55 4.6,-2.29 8.82,-5.3 12.66,-8.72 1.16,-0.34 1.9,-1.09 2.23,-2.26 z"
         id="path5363" />
      <path
         style="fill:#dccd3b;stroke:#dccd3b;stroke-width:0.5"
         inkscape:connector-curvature="0"
         d="m 1158.952,780.487 c -0.16,-1.62 0.58,-2.37 2.23,-2.26 -0.33,1.17 -1.07,1.92 -2.23,2.26 z"
         id="path5365" />
      <path
         style="fill:#637b25;stroke:#637b25;stroke-width:0.5"
         inkscape:connector-curvature="0"
         d="m 1175.802,785.507 c 1.81,-1.23 3.56,-2.53 5.35,-3.79 0.47,0.14 1.39,0.42 1.85,0.56 2.62,0.66 4.84,2.25 7.06,3.74 l -1.64,-0.31 -0.07,-0.02 c -1.74,-1.07 -3.29,-3.08 -5.49,-2.9 -2.43,0.72 -4.72,1.79 -7.06,2.72 z"
         id="path5367" />
      <path
         style="fill:#d4c642;stroke:#d4c642;stroke-width:0.5"
         inkscape:connector-curvature="0"
         d="m 1175.802,785.507 c 2.34,-0.93 4.63,-2 7.06,-2.72 2.2,-0.18 3.75,1.83 5.49,2.9 -1.96,-0.39 -3.88,-0.86 -5.78,-1.39 -15.96,6.51 -31.41,14.21 -47.19,21.16 -4.38,1.9 -8.71,3.9 -12.94,6.1 -2.2,6.57 -3.81,14.09 -0.31,20.53 19.51,-8.66 38.87,-17.66 58.33,-26.46 4.16,-1.83 8.15,-4.31 12.78,-4.78 -23.75,11.5 -47.99,22.02 -71.97,33.04 -1.56,-2.67 -1.13,-5.83 -1.24,-8.76 0.09,-5.03 -0.38,-10.21 1.37,-15.03 8.74,-3.57 17.22,-7.75 25.86,-11.58 2.47,-0.96 4.86,-2.12 7.14,-3.47 l 0.1,-0.04 c 6.81,-2.4 13.3,-5.64 19.77,-8.84 0.38,-0.17 1.15,-0.5 1.53,-0.66 z"
         id="path5369" />
      <path
         style="fill:#fad105;stroke:#fad105;stroke-width:0.5"
         inkscape:connector-curvature="0"
         d="m 1135.382,805.457 c 15.78,-6.95 31.23,-14.65 47.19,-21.16 1.9,0.53 3.82,1 5.78,1.39 l 0.07,0.02 c 2.98,3.89 7.41,6.22 10.85,9.65 -1.12,2.17 -3.22,3.52 -5,5.1 -0.26,0.1 -0.77,0.29 -1.03,0.39 -4.63,0.47 -8.62,2.95 -12.78,4.78 -19.46,8.8 -38.82,17.8 -58.33,26.46 -3.5,-6.44 -1.89,-13.96 0.31,-20.53 4.23,-2.2 8.56,-4.2 12.94,-6.1 z"
         id="path5371" />
      <path
         style="fill:#375a3d;stroke:#375a3d;stroke-width:0.5"
         inkscape:connector-curvature="0"
         d="m 1160.722,791.087 c 4.42,-1.88 8.61,-4.62 13.55,-4.92 -6.47,3.2 -12.96,6.44 -19.77,8.84 1.87,-1.6 3.92,-2.98 6.22,-3.92 z"
         id="path5373" />
      <path
         style="fill:#daa168;stroke:#daa168;stroke-width:0.5"
         inkscape:connector-curvature="0"
         d="m 1188.422,785.707 1.64,0.31 c 0.32,0.18 0.97,0.52 1.29,0.69 4.26,2.63 8.1,6.11 10.69,10.45 l -0.55,0.22 c -0.76,-0.68 -1.5,-1.36 -2.22,-2.02 -3.44,-3.43 -7.87,-5.76 -10.85,-9.65 z"
         id="path5375" />
      <path
         style="fill:#e7d353;stroke:#e7d353;stroke-width:0.5"
         inkscape:connector-curvature="0"
         d="m 1131.252,793.677 c 5.2,-0.9 9.77,-3.89 15.04,-4.47 -5.91,3.32 -12.42,5.55 -19.12,6.55 -0.14,0.21 -0.41,0.63 -0.54,0.85 -6.29,0.43 -12.6,1.17 -18.87,0.1 -3.78,-0.64 -7.98,-0.72 -11.21,-2.93 3.05,0.37 6.11,0.78 9.13,1.39 8.48,1.81 17.2,0.15 25.57,-1.49 z"
         id="path5377" />
      <path
         style="fill:#345836;stroke:#345836;stroke-width:0.5"
         inkscape:connector-curvature="0"
         d="m 1147.262,798.517 c 1.47,-2.63 4.36,-3.3 7.14,-3.47 -2.28,1.35 -4.67,2.51 -7.14,3.47 z"
         id="path5379" />
      <path
         style="fill:#dac744;stroke:#dac744;stroke-width:0.5"
         inkscape:connector-curvature="0"
         d="m 1199.272,795.357 c 0.72,0.66 1.46,1.34 2.22,2.02 -2.4,1.05 -4.77,2.15 -7.22,3.08 1.78,-1.58 3.88,-2.93 5,-5.1 z"
         id="path5381" />
      <path
         style="fill:#3c5d41;stroke:#3c5d41;stroke-width:0.5"
         inkscape:connector-curvature="0"
         d="m 1201.492,797.377 0.55,-0.22 c 0.21,0.32 0.64,0.98 0.85,1.3 -16.94,6.96 -33.36,15.13 -50.11,22.52 -10.52,4.96 -21.27,9.44 -31.7,14.57 0.02,-0.58 0.08,-1.13 0.19,-1.66 23.98,-11.02 48.22,-21.54 71.97,-33.04 0.26,-0.1 0.77,-0.29 1.03,-0.39 2.45,-0.93 4.82,-2.03 7.22,-3.08 z"
         id="path5383" />
      <path
         style="fill:#094c76;stroke:#094c76;stroke-width:0.5"
         inkscape:connector-curvature="0"
         d="m 1152.782,820.977 c 16.75,-7.39 33.17,-15.56 50.11,-22.52 1.01,1.53 2.1,3.04 3.15,4.57 2.27,3.28 3.96,6.91 5.51,10.58 -4.15,2.07 -8.41,3.89 -12.62,5.83 -23.84,10.38 -47.39,21.44 -71.12,32.07 -2.97,-5 -5.01,-10.44 -6.73,-15.96 10.43,-5.13 21.18,-9.61 31.7,-14.57 z"
         id="path5385" />
      <path
         style="fill:#fad105;stroke:#fad105;stroke-width:0.5"
         inkscape:connector-curvature="0"
         d="m 1211.552,813.607 0.15,-0.08 c 0.59,3.12 2.13,6.08 2.21,9.28 -0.64,3.64 0.14,7.26 0.42,10.9 -1.63,1.84 -3.99,2.75 -6.16,3.75 -6.77,2.84 -13.37,6.06 -20.09,9 -2.31,1.09 -4.99,1.88 -6.41,4.18 -0.3,0.14 -0.91,0.43 -1.21,0.57 -1.88,-0.03 -3.74,0.26 -5.41,1.1 -8.27,3.81 -16.55,7.59 -24.87,11.26 -1.55,0.59 -2.7,1.8 -3.79,2.99 -1.12,0.62 -2.24,1.24 -3.34,1.87 -4.8,-4.79 -9.85,-9.38 -13.87,-14.88 3.15,-2.85 7.13,-4.41 10.97,-6.09 18.56,-8.45 37.19,-16.76 55.72,-25.28 1.36,-0.48 2.23,-1.62 3.06,-2.74 4.21,-1.94 8.47,-3.76 12.62,-5.83 z"
         id="path5387" />
      <path
         style="fill:#cec43f;stroke:#cec43f;stroke-width:0.5"
         inkscape:connector-curvature="0"
         d="m 1127.813,851.507 c 23.73,-10.63 47.28,-21.69 71.12,-32.07 -0.83,1.12 -1.7,2.26 -3.06,2.74 -18.53,8.52 -37.16,16.83 -55.72,25.28 -3.84,1.68 -7.82,3.24 -10.97,6.09 -0.481,-0.69 -0.941,-1.38 -1.37,-2.04 z"
         id="path5389" />
      <path
         style="fill:#d9cd51;stroke:#d9cd51;stroke-width:0.5"
         inkscape:connector-curvature="0"
         d="m 1213.912,822.807 c 2.11,3.92 1.2,8.57 1.54,12.85 -11.38,4.74 -22.38,10.33 -33.78,14.98 1.42,-2.3 4.1,-3.09 6.41,-4.18 6.72,-2.94 13.32,-6.16 20.09,-9 2.17,-1 4.53,-1.91 6.16,-3.75 -0.28,-3.64 -1.06,-7.26 -0.42,-10.9 z"
         id="path5391" />
      <path
         style="fill:#094c76;stroke:#094c76;stroke-width:0.5"
         inkscape:connector-curvature="0"
         d="m 1181.672,850.637 c 11.4,-4.65 22.4,-10.24 33.78,-14.98 0.09,7.37 0.07,14.74 -0.37,22.11 -0.17,-0.37 -0.49,-1.09 -0.65,-1.45 -19.13,8.31 -38.68,15.63 -57.87,23.78 -4.52,-3.88 -9.15,-7.61 -13.51,-11.67 1.1,-0.63 2.22,-1.25 3.34,-1.87 11.55,-4.64 22.86,-9.92 34.07,-15.35 0.3,-0.14 0.91,-0.43 1.21,-0.57 z"
         id="path5393" />
      <path
         style="fill:#ccc33f;stroke:#ccc33f;stroke-width:0.5"
         inkscape:connector-curvature="0"
         d="m 1175.052,852.307 c 1.67,-0.84 3.53,-1.13 5.41,-1.1 -11.21,5.43 -22.52,10.71 -34.07,15.35 1.09,-1.19 2.24,-2.4 3.79,-2.99 8.32,-3.67 16.6,-7.45 24.87,-11.26 z"
         id="path5395" />
      <path
         style="fill:#355a40;stroke:#355a40;stroke-width:0.5"
         inkscape:connector-curvature="0"
         d="m 1156.563,880.097 c 19.19,-8.15 38.74,-15.47 57.87,-23.78 0.16,0.36 0.48,1.08 0.65,1.45 -15.45,6.18 -30.96,12.21 -46.2,18.88 -3.43,1.21 -6.72,2.77 -10.12,4.05 -0.551,-0.15 -1.651,-0.45 -2.2,-0.6 z"
         id="path5397" />
      <path
         style="fill:#ccc346;stroke:#ccc346;stroke-width:0.5"
         inkscape:connector-curvature="0"
         d="m 1168.882,876.647 c 15.24,-6.67 30.75,-12.7 46.2,-18.88 0.12,3.46 -0.5,6.89 -1.18,10.29 -0.11,-2.71 -0.32,-5.4 -0.46,-8.09 -9.69,3.24 -19,7.51 -28.51,11.22 -5.31,1.93 -10.29,5.11 -16.05,5.46 z"
         id="path5399" />
      <path
         style="fill:#fad105;stroke:#fad105;stroke-width:0.5"
         inkscape:connector-curvature="0"
         d="m 1184.932,871.187 c 9.51,-3.71 18.82,-7.98 28.51,-11.22 0.14,2.69 0.35,5.38 0.46,8.09 -0.28,4.76 -1.36,9.42 -2.06,14.14 -1.89,0.66 -3.77,1.35 -5.63,2.04 -6.01,0.34 -11.16,3.69 -16.7,5.62 -3.04,1.41 -6.9,1.81 -8.86,4.85 -0.5,0.21 -1.49,0.62 -1.99,0.83 -5,-3.01 -9.74,-6.43 -14.51,-9.78 -1.99,-1.46 -4.28,-2.77 -5.39,-5.06 3.4,-1.28 6.69,-2.84 10.12,-4.05 5.76,-0.35 10.74,-3.53 16.05,-5.46 z"
         id="path5401" />
      <path
         style="fill:#0a4b76;stroke:#0a4b76;stroke-width:0.5"
         inkscape:connector-curvature="0"
         d="m 1206.212,884.237 c 1.86,-0.69 3.74,-1.38 5.63,-2.04 -1.78,9.31 -3.98,18.56 -6.92,27.59 -9.11,-4.07 -17.81,-8.97 -26.26,-14.25 0.5,-0.21 1.49,-0.62 1.99,-0.83 8.6,-3.27 17.21,-6.58 25.56,-10.47 z"
         id="path5403" />
      <path
         style="fill:#c6bf40;stroke:#c6bf40;stroke-width:0.5"
         inkscape:connector-curvature="0"
         d="m 1189.512,889.857 c 5.54,-1.93 10.69,-5.28 16.7,-5.62 -8.35,3.89 -16.96,7.2 -25.56,10.47 1.96,-3.04 5.82,-3.44 8.86,-4.85 z"
         id="path5405" />
    </g>
  </g>
</svg>
